G04 (created by PCBNEW-RS274X (2012-01-19 BZR 3256)-stable) date 2013-01-22 오후 1:13:22*
G01*
G70*
G90*
%MOIN*%
G04 Gerber Fmt 3.4, Leading zero omitted, Abs format*
%FSLAX34Y34*%
G04 APERTURE LIST*
%ADD10C,0.006000*%
%ADD11R,0.055000X0.035000*%
%ADD12R,0.035000X0.055000*%
%ADD13R,0.057900X0.016500*%
%ADD14R,0.122000X0.203900*%
%ADD15C,0.028000*%
%ADD16R,0.027600X0.023600*%
%ADD17R,0.035400X0.027600*%
%ADD18R,0.060000X0.060000*%
%ADD19C,0.060000*%
%ADD20C,0.020000*%
%ADD21C,0.016000*%
G04 APERTURE END LIST*
G54D10*
G54D11*
X44890Y-45475D03*
X44890Y-44725D03*
G54D12*
X44375Y-39350D03*
X43625Y-39350D03*
G54D11*
X42750Y-37975D03*
X42750Y-38725D03*
X44000Y-44725D03*
X44000Y-45475D03*
X44150Y-37975D03*
X44150Y-38725D03*
X43450Y-37975D03*
X43450Y-38725D03*
X43300Y-44725D03*
X43300Y-45475D03*
X42600Y-44725D03*
X42600Y-45475D03*
X45700Y-45475D03*
X45700Y-44725D03*
G54D12*
X43175Y-39350D03*
X42425Y-39350D03*
G54D13*
X45252Y-41878D03*
X45252Y-41622D03*
X45252Y-41366D03*
X45252Y-41110D03*
X43050Y-42642D03*
X45252Y-42646D03*
X45252Y-42390D03*
X45252Y-42134D03*
X43048Y-40854D03*
X43048Y-41110D03*
X43048Y-41366D03*
X43048Y-41622D03*
X43048Y-41878D03*
X43048Y-42134D03*
X45252Y-40854D03*
X43050Y-42390D03*
X45252Y-42902D03*
X45252Y-40598D03*
X43048Y-40598D03*
X43048Y-42902D03*
X45252Y-43157D03*
X45252Y-40343D03*
X43048Y-40343D03*
X43048Y-43157D03*
X45252Y-43413D03*
X45252Y-40087D03*
X43048Y-40087D03*
X43048Y-43413D03*
G54D14*
X44150Y-41750D03*
G54D15*
X43750Y-40950D03*
X44150Y-40950D03*
X44550Y-40950D03*
X43750Y-41350D03*
X44150Y-41350D03*
X44550Y-41350D03*
X43750Y-41750D03*
X44150Y-41750D03*
X44550Y-41750D03*
X43750Y-42150D03*
X44150Y-42150D03*
X44550Y-42150D03*
X43750Y-42550D03*
X44150Y-42550D03*
X44550Y-42550D03*
G54D16*
X45744Y-38428D03*
G54D17*
X45350Y-39372D03*
G54D16*
X44956Y-38428D03*
G54D18*
X41650Y-38200D03*
G54D19*
X41650Y-39200D03*
X41650Y-40200D03*
X41650Y-41200D03*
X41650Y-42200D03*
X41650Y-43200D03*
X41650Y-44200D03*
X41650Y-45200D03*
G54D18*
X46650Y-38200D03*
G54D19*
X46650Y-39200D03*
X46650Y-40200D03*
X46650Y-41200D03*
X46650Y-42200D03*
X46650Y-43200D03*
X46650Y-44200D03*
X46650Y-45200D03*
G54D15*
X42780Y-43700D03*
X42530Y-39880D03*
X43760Y-44300D03*
X46260Y-42610D03*
X43150Y-44100D03*
X45960Y-41280D03*
X42540Y-40340D03*
X42410Y-40700D03*
X42470Y-41980D03*
X44550Y-40500D03*
X43750Y-40100D03*
X44150Y-40100D03*
X44150Y-40500D03*
X44550Y-40100D03*
X44550Y-43100D03*
X43750Y-43100D03*
X44150Y-43100D03*
X44550Y-43500D03*
X43750Y-43500D03*
X44150Y-43500D03*
X43750Y-40500D03*
X45950Y-44320D03*
X42540Y-41120D03*
G54D20*
X45252Y-42390D02*
X45600Y-42390D01*
X46410Y-43200D02*
X46650Y-43200D01*
X45600Y-42390D02*
X46410Y-43200D01*
G54D21*
X45252Y-41878D02*
X46328Y-41878D01*
X46328Y-41878D02*
X46650Y-42200D01*
G54D20*
X46520Y-40200D02*
X46650Y-40200D01*
X45610Y-41110D02*
X46520Y-40200D01*
X45252Y-41110D02*
X45610Y-41110D01*
X46228Y-41622D02*
X46650Y-41200D01*
X45252Y-41622D02*
X46228Y-41622D01*
G54D21*
X46228Y-41622D02*
X46650Y-41200D01*
G54D10*
X44043Y-44725D02*
X44000Y-44725D01*
X45252Y-43510D02*
X45252Y-43516D01*
X45252Y-43510D02*
X45252Y-43413D01*
X45252Y-43516D02*
X44043Y-44725D01*
X44490Y-44450D02*
X45260Y-43680D01*
X45680Y-43310D02*
X45680Y-43646D01*
X44000Y-45475D02*
X44255Y-45475D01*
X45260Y-43680D02*
X45646Y-43680D01*
X45252Y-43157D02*
X45527Y-43157D01*
X45680Y-43646D02*
X45646Y-43680D01*
X44255Y-45475D02*
X44490Y-45240D01*
X45527Y-43157D02*
X45680Y-43310D01*
X44490Y-45240D02*
X44490Y-44450D01*
X43386Y-41366D02*
X43440Y-41420D01*
X43048Y-41366D02*
X43386Y-41366D01*
X43440Y-41420D02*
X43440Y-43590D01*
X42780Y-43700D02*
X43330Y-43700D01*
X43330Y-43700D02*
X43440Y-43590D01*
X42172Y-39960D02*
X42050Y-39838D01*
X42302Y-41310D02*
X42302Y-40930D01*
X42050Y-39838D02*
X42050Y-38600D01*
X42050Y-38600D02*
X41650Y-38200D01*
X43048Y-41622D02*
X42614Y-41622D01*
X42172Y-40800D02*
X42172Y-39960D01*
X42614Y-41622D02*
X42302Y-41310D01*
X42302Y-40930D02*
X42172Y-40800D01*
X46650Y-44525D02*
X46650Y-44200D01*
X45700Y-45475D02*
X46650Y-44525D01*
X43175Y-39350D02*
X42645Y-39880D01*
X42645Y-39880D02*
X42530Y-39880D01*
X43300Y-44725D02*
X43335Y-44725D01*
X45252Y-42134D02*
X45784Y-42134D01*
X45784Y-42134D02*
X46260Y-42610D01*
X43335Y-44725D02*
X43760Y-44300D01*
X42600Y-44650D02*
X43150Y-44100D01*
X45874Y-41366D02*
X45960Y-41280D01*
X45252Y-41366D02*
X45874Y-41366D01*
X42600Y-44725D02*
X42600Y-44650D01*
X42232Y-42390D02*
X42180Y-42338D01*
X41650Y-39610D02*
X41650Y-39200D01*
X43050Y-42390D02*
X42232Y-42390D01*
X42050Y-40868D02*
X42050Y-40010D01*
X42180Y-40998D02*
X42050Y-40868D01*
X42180Y-42338D02*
X42180Y-40998D01*
X42050Y-40010D02*
X41650Y-39610D01*
X41650Y-40640D02*
X41650Y-40200D01*
X42312Y-42642D02*
X42050Y-42380D01*
X42050Y-42380D02*
X42050Y-41040D01*
X43050Y-42642D02*
X42312Y-42642D01*
X42050Y-41040D02*
X41650Y-40640D01*
X41250Y-41600D02*
X41650Y-41200D01*
X41490Y-42600D02*
X41250Y-42360D01*
X42392Y-42902D02*
X42090Y-42600D01*
X43048Y-42902D02*
X42392Y-42902D01*
X42090Y-42600D02*
X41490Y-42600D01*
X41250Y-42360D02*
X41250Y-41600D01*
X45252Y-40343D02*
X44907Y-40343D01*
X44850Y-39872D02*
X45350Y-39372D01*
X44850Y-40286D02*
X44850Y-39872D01*
X44907Y-40343D02*
X44850Y-40286D01*
X45252Y-40598D02*
X45252Y-40343D01*
X42540Y-40340D02*
X42783Y-40343D01*
X42783Y-40343D02*
X43048Y-40343D01*
X42512Y-40598D02*
X43048Y-40598D01*
X42294Y-39481D02*
X42425Y-39350D01*
X42410Y-40700D02*
X42294Y-40584D01*
X42294Y-40584D02*
X42294Y-39481D01*
X42410Y-40700D02*
X42512Y-40598D01*
X42572Y-41878D02*
X42470Y-41980D01*
X43048Y-41878D02*
X42572Y-41878D01*
X45802Y-43202D02*
X45802Y-43708D01*
X45802Y-43708D02*
X45708Y-43802D01*
X45310Y-43802D02*
X44890Y-44222D01*
X45252Y-42902D02*
X45502Y-42902D01*
X44890Y-44222D02*
X44890Y-44725D01*
X45708Y-43802D02*
X45310Y-43802D01*
X45502Y-42902D02*
X45802Y-43202D01*
X45297Y-38453D02*
X45300Y-38453D01*
X44500Y-39000D02*
X44750Y-39000D01*
X43975Y-39750D02*
X44375Y-39350D01*
X44275Y-39225D02*
X44500Y-39000D01*
X43385Y-39750D02*
X43975Y-39750D01*
X44375Y-39350D02*
X44275Y-39225D01*
X43048Y-40087D02*
X43385Y-39750D01*
X44750Y-39000D02*
X45297Y-38453D01*
X45719Y-38453D02*
X45744Y-38428D01*
X45300Y-38453D02*
X45719Y-38453D01*
X44150Y-41750D02*
X43750Y-41350D01*
X43750Y-42150D02*
X43750Y-43500D01*
X43750Y-41350D02*
X43750Y-41100D01*
X44150Y-40100D02*
X44550Y-40100D01*
X44550Y-43100D02*
X44150Y-43100D01*
X43750Y-41350D02*
X43750Y-40100D01*
X44550Y-40500D02*
X44150Y-40500D01*
X44150Y-43500D02*
X44550Y-43500D01*
X44150Y-41750D02*
X43750Y-42150D01*
X43048Y-40854D02*
X42604Y-40854D01*
X42540Y-40918D02*
X42604Y-40854D01*
X45700Y-44570D02*
X45950Y-44320D01*
X42604Y-40854D02*
X43048Y-40854D01*
X45700Y-44725D02*
X45700Y-44570D01*
X42540Y-41120D02*
X42540Y-40918D01*
X46590Y-39700D02*
X46710Y-39700D01*
X47050Y-38600D02*
X46650Y-38200D01*
X47050Y-39360D02*
X47050Y-38600D01*
X46710Y-39700D02*
X47050Y-39360D01*
X44926Y-40854D02*
X45252Y-40854D01*
G54D20*
X46425Y-37975D02*
X46650Y-38200D01*
G54D10*
X45700Y-39850D02*
X45850Y-39700D01*
X45850Y-39700D02*
X46590Y-39700D01*
X44860Y-40920D02*
X44926Y-40854D01*
G54D20*
X42750Y-37975D02*
X46425Y-37975D01*
G54D10*
X44860Y-42620D02*
X44860Y-40920D01*
X45252Y-42646D02*
X44886Y-42646D01*
G54D20*
X44150Y-37975D02*
X46425Y-37975D01*
G54D10*
X44886Y-42646D02*
X44860Y-42620D01*
X45596Y-40854D02*
X45700Y-40750D01*
G54D20*
X46425Y-37975D02*
X46650Y-38200D01*
X43450Y-37975D02*
X44150Y-37975D01*
G54D10*
X45252Y-42646D02*
X45496Y-42646D01*
X45700Y-40750D02*
X45700Y-39850D01*
X45252Y-40854D02*
X45596Y-40854D01*
X45766Y-43924D02*
X45456Y-43924D01*
X45290Y-45075D02*
X44890Y-45475D01*
X45456Y-43924D02*
X45290Y-44090D01*
X45496Y-42646D02*
X45924Y-43074D01*
X45290Y-44090D02*
X45290Y-45075D01*
X45924Y-43074D02*
X45924Y-43766D01*
X45924Y-43766D02*
X45766Y-43924D01*
G36*
X46930Y-39310D02*
X46660Y-39580D01*
X46590Y-39580D01*
X45850Y-39580D01*
X45804Y-39589D01*
X45765Y-39615D01*
X45615Y-39765D01*
X45589Y-39804D01*
X45580Y-39850D01*
X45580Y-40180D01*
X45558Y-40172D01*
X45523Y-40172D01*
X44970Y-40172D01*
X44970Y-39922D01*
X45293Y-39599D01*
X45545Y-39599D01*
X45578Y-39585D01*
X45603Y-39560D01*
X45616Y-39527D01*
X45616Y-39492D01*
X45616Y-39216D01*
X45602Y-39183D01*
X45577Y-39158D01*
X45544Y-39145D01*
X45509Y-39145D01*
X45155Y-39145D01*
X45122Y-39159D01*
X45097Y-39184D01*
X45084Y-39217D01*
X45084Y-39252D01*
X45084Y-39468D01*
X44765Y-39787D01*
X44739Y-39826D01*
X44730Y-39872D01*
X44730Y-40286D01*
X44739Y-40332D01*
X44765Y-40371D01*
X44820Y-40425D01*
X44822Y-40428D01*
X44861Y-40454D01*
X44880Y-40457D01*
X44885Y-40469D01*
X44874Y-40499D01*
X44874Y-40534D01*
X44874Y-40698D01*
X44885Y-40725D01*
X44878Y-40744D01*
X44841Y-40769D01*
X44775Y-40835D01*
X44749Y-40874D01*
X44740Y-40920D01*
X44740Y-42620D01*
X44749Y-42666D01*
X44775Y-42705D01*
X44799Y-42728D01*
X44801Y-42731D01*
X44839Y-42756D01*
X44840Y-42757D01*
X44876Y-42764D01*
X44882Y-42765D01*
X44885Y-42773D01*
X44874Y-42803D01*
X44874Y-42838D01*
X44874Y-43002D01*
X44885Y-43028D01*
X44874Y-43058D01*
X44874Y-43093D01*
X44874Y-43257D01*
X44885Y-43284D01*
X44874Y-43314D01*
X44874Y-43349D01*
X44874Y-43513D01*
X44888Y-43546D01*
X44913Y-43571D01*
X44946Y-43584D01*
X44981Y-43584D01*
X45014Y-43584D01*
X44137Y-44461D01*
X43924Y-44461D01*
X43954Y-44431D01*
X43990Y-44346D01*
X43990Y-44255D01*
X43955Y-44170D01*
X43891Y-44106D01*
X43806Y-44070D01*
X43715Y-44070D01*
X43630Y-44105D01*
X43566Y-44169D01*
X43530Y-44254D01*
X43530Y-44345D01*
X43534Y-44355D01*
X43429Y-44461D01*
X43007Y-44461D01*
X42974Y-44475D01*
X42950Y-44499D01*
X42935Y-44484D01*
X43093Y-44325D01*
X43104Y-44330D01*
X43195Y-44330D01*
X43280Y-44295D01*
X43344Y-44231D01*
X43380Y-44146D01*
X43380Y-44055D01*
X43345Y-43970D01*
X43281Y-43906D01*
X43196Y-43870D01*
X43105Y-43870D01*
X43020Y-43905D01*
X42956Y-43969D01*
X42920Y-44054D01*
X42920Y-44145D01*
X42924Y-44156D01*
X42619Y-44461D01*
X42307Y-44461D01*
X42274Y-44475D01*
X42249Y-44500D01*
X42236Y-44533D01*
X42236Y-44568D01*
X42236Y-44918D01*
X42250Y-44951D01*
X42275Y-44976D01*
X42308Y-44989D01*
X42343Y-44989D01*
X42893Y-44989D01*
X42926Y-44975D01*
X42950Y-44951D01*
X42975Y-44976D01*
X43008Y-44989D01*
X43043Y-44989D01*
X43593Y-44989D01*
X43626Y-44975D01*
X43650Y-44951D01*
X43675Y-44976D01*
X43708Y-44989D01*
X43743Y-44989D01*
X44293Y-44989D01*
X44326Y-44975D01*
X44351Y-44950D01*
X44364Y-44917D01*
X44364Y-44882D01*
X44364Y-44573D01*
X44370Y-44567D01*
X44370Y-45190D01*
X44330Y-45229D01*
X44325Y-45224D01*
X44292Y-45211D01*
X44257Y-45211D01*
X43707Y-45211D01*
X43674Y-45225D01*
X43649Y-45250D01*
X43636Y-45283D01*
X43636Y-45318D01*
X43636Y-45585D01*
X41736Y-45585D01*
X41870Y-45530D01*
X41980Y-45421D01*
X42039Y-45278D01*
X42039Y-45123D01*
X41980Y-44980D01*
X41871Y-44870D01*
X41728Y-44811D01*
X41573Y-44811D01*
X41430Y-44870D01*
X41320Y-44979D01*
X41265Y-45112D01*
X41265Y-44286D01*
X41320Y-44420D01*
X41429Y-44530D01*
X41572Y-44589D01*
X41727Y-44589D01*
X41870Y-44530D01*
X41980Y-44421D01*
X42039Y-44278D01*
X42039Y-44123D01*
X41980Y-43980D01*
X41871Y-43870D01*
X41728Y-43811D01*
X41573Y-43811D01*
X41430Y-43870D01*
X41320Y-43979D01*
X41265Y-44112D01*
X41265Y-43286D01*
X41320Y-43420D01*
X41429Y-43530D01*
X41572Y-43589D01*
X41727Y-43589D01*
X41870Y-43530D01*
X41980Y-43421D01*
X42039Y-43278D01*
X42039Y-43123D01*
X41980Y-42980D01*
X41871Y-42870D01*
X41728Y-42811D01*
X41573Y-42811D01*
X41430Y-42870D01*
X41320Y-42979D01*
X41265Y-43112D01*
X41265Y-42545D01*
X41405Y-42685D01*
X41444Y-42711D01*
X41490Y-42720D01*
X42040Y-42720D01*
X42307Y-42987D01*
X42346Y-43013D01*
X42392Y-43022D01*
X42678Y-43022D01*
X42681Y-43028D01*
X42670Y-43058D01*
X42670Y-43093D01*
X42670Y-43257D01*
X42684Y-43290D01*
X42709Y-43315D01*
X42742Y-43328D01*
X42777Y-43328D01*
X43320Y-43328D01*
X43320Y-43540D01*
X43280Y-43580D01*
X42979Y-43580D01*
X42975Y-43570D01*
X42911Y-43506D01*
X42826Y-43470D01*
X42735Y-43470D01*
X42650Y-43505D01*
X42586Y-43569D01*
X42550Y-43654D01*
X42550Y-43745D01*
X42585Y-43830D01*
X42649Y-43894D01*
X42734Y-43930D01*
X42825Y-43930D01*
X42910Y-43895D01*
X42974Y-43831D01*
X42978Y-43820D01*
X43330Y-43820D01*
X43376Y-43811D01*
X43415Y-43785D01*
X43522Y-43676D01*
X43524Y-43675D01*
X43525Y-43675D01*
X43551Y-43636D01*
X43560Y-43590D01*
X43560Y-41420D01*
X43551Y-41374D01*
X43525Y-41335D01*
X43471Y-41281D01*
X43432Y-41255D01*
X43420Y-41252D01*
X43414Y-41238D01*
X43426Y-41209D01*
X43426Y-41174D01*
X43426Y-41010D01*
X43414Y-40982D01*
X43426Y-40953D01*
X43426Y-40918D01*
X43426Y-40754D01*
X43414Y-40726D01*
X43426Y-40697D01*
X43426Y-40662D01*
X43426Y-40498D01*
X43414Y-40471D01*
X43426Y-40442D01*
X43426Y-40407D01*
X43426Y-40243D01*
X43414Y-40215D01*
X43426Y-40186D01*
X43426Y-40151D01*
X43426Y-39987D01*
X43412Y-39954D01*
X43387Y-39929D01*
X43378Y-39925D01*
X43434Y-39870D01*
X43975Y-39870D01*
X44021Y-39861D01*
X44060Y-39835D01*
X44181Y-39713D01*
X44183Y-39714D01*
X44218Y-39714D01*
X44568Y-39714D01*
X44601Y-39700D01*
X44626Y-39675D01*
X44639Y-39642D01*
X44639Y-39607D01*
X44639Y-39120D01*
X44750Y-39120D01*
X44796Y-39111D01*
X44835Y-39085D01*
X45346Y-38573D01*
X45520Y-38573D01*
X45531Y-38597D01*
X45556Y-38622D01*
X45589Y-38635D01*
X45624Y-38635D01*
X45900Y-38635D01*
X45933Y-38621D01*
X45958Y-38596D01*
X45971Y-38563D01*
X45971Y-38528D01*
X45971Y-38292D01*
X45957Y-38259D01*
X45932Y-38234D01*
X45899Y-38221D01*
X45864Y-38221D01*
X45588Y-38221D01*
X45555Y-38235D01*
X45530Y-38260D01*
X45517Y-38293D01*
X45517Y-38328D01*
X45517Y-38333D01*
X45300Y-38333D01*
X45298Y-38333D01*
X45297Y-38333D01*
X45251Y-38342D01*
X45212Y-38368D01*
X45210Y-38370D01*
X44700Y-38880D01*
X44500Y-38880D01*
X44454Y-38889D01*
X44415Y-38915D01*
X44344Y-38986D01*
X44182Y-38986D01*
X44149Y-39000D01*
X44124Y-39025D01*
X44111Y-39058D01*
X44111Y-39093D01*
X44111Y-39444D01*
X43925Y-39630D01*
X43439Y-39630D01*
X43439Y-39607D01*
X43439Y-39057D01*
X43425Y-39024D01*
X43400Y-38999D01*
X43367Y-38986D01*
X43332Y-38986D01*
X42982Y-38986D01*
X42949Y-39000D01*
X42924Y-39025D01*
X42911Y-39058D01*
X42911Y-39093D01*
X42911Y-39444D01*
X42665Y-39690D01*
X42663Y-39688D01*
X42676Y-39675D01*
X42689Y-39642D01*
X42689Y-39607D01*
X42689Y-39057D01*
X42675Y-39024D01*
X42650Y-38999D01*
X42617Y-38986D01*
X42582Y-38986D01*
X42232Y-38986D01*
X42199Y-39000D01*
X42174Y-39025D01*
X42170Y-39035D01*
X42170Y-38600D01*
X42161Y-38554D01*
X42135Y-38515D01*
X42132Y-38513D01*
X42039Y-38419D01*
X42039Y-37882D01*
X42025Y-37849D01*
X42000Y-37824D01*
X41977Y-37815D01*
X42386Y-37815D01*
X42386Y-37818D01*
X42386Y-38168D01*
X42400Y-38201D01*
X42425Y-38226D01*
X42458Y-38239D01*
X42493Y-38239D01*
X43043Y-38239D01*
X43076Y-38225D01*
X43100Y-38201D01*
X43125Y-38226D01*
X43158Y-38239D01*
X43193Y-38239D01*
X43743Y-38239D01*
X43776Y-38225D01*
X43800Y-38201D01*
X43825Y-38226D01*
X43858Y-38239D01*
X43893Y-38239D01*
X44443Y-38239D01*
X44476Y-38225D01*
X44501Y-38200D01*
X44514Y-38167D01*
X44514Y-38165D01*
X46261Y-38165D01*
X46261Y-38518D01*
X46275Y-38551D01*
X46300Y-38576D01*
X46333Y-38589D01*
X46368Y-38589D01*
X46869Y-38589D01*
X46930Y-38649D01*
X46930Y-39310D01*
X46930Y-39310D01*
G37*
X46930Y-39310D02*
X46660Y-39580D01*
X46590Y-39580D01*
X45850Y-39580D01*
X45804Y-39589D01*
X45765Y-39615D01*
X45615Y-39765D01*
X45589Y-39804D01*
X45580Y-39850D01*
X45580Y-40180D01*
X45558Y-40172D01*
X45523Y-40172D01*
X44970Y-40172D01*
X44970Y-39922D01*
X45293Y-39599D01*
X45545Y-39599D01*
X45578Y-39585D01*
X45603Y-39560D01*
X45616Y-39527D01*
X45616Y-39492D01*
X45616Y-39216D01*
X45602Y-39183D01*
X45577Y-39158D01*
X45544Y-39145D01*
X45509Y-39145D01*
X45155Y-39145D01*
X45122Y-39159D01*
X45097Y-39184D01*
X45084Y-39217D01*
X45084Y-39252D01*
X45084Y-39468D01*
X44765Y-39787D01*
X44739Y-39826D01*
X44730Y-39872D01*
X44730Y-40286D01*
X44739Y-40332D01*
X44765Y-40371D01*
X44820Y-40425D01*
X44822Y-40428D01*
X44861Y-40454D01*
X44880Y-40457D01*
X44885Y-40469D01*
X44874Y-40499D01*
X44874Y-40534D01*
X44874Y-40698D01*
X44885Y-40725D01*
X44878Y-40744D01*
X44841Y-40769D01*
X44775Y-40835D01*
X44749Y-40874D01*
X44740Y-40920D01*
X44740Y-42620D01*
X44749Y-42666D01*
X44775Y-42705D01*
X44799Y-42728D01*
X44801Y-42731D01*
X44839Y-42756D01*
X44840Y-42757D01*
X44876Y-42764D01*
X44882Y-42765D01*
X44885Y-42773D01*
X44874Y-42803D01*
X44874Y-42838D01*
X44874Y-43002D01*
X44885Y-43028D01*
X44874Y-43058D01*
X44874Y-43093D01*
X44874Y-43257D01*
X44885Y-43284D01*
X44874Y-43314D01*
X44874Y-43349D01*
X44874Y-43513D01*
X44888Y-43546D01*
X44913Y-43571D01*
X44946Y-43584D01*
X44981Y-43584D01*
X45014Y-43584D01*
X44137Y-44461D01*
X43924Y-44461D01*
X43954Y-44431D01*
X43990Y-44346D01*
X43990Y-44255D01*
X43955Y-44170D01*
X43891Y-44106D01*
X43806Y-44070D01*
X43715Y-44070D01*
X43630Y-44105D01*
X43566Y-44169D01*
X43530Y-44254D01*
X43530Y-44345D01*
X43534Y-44355D01*
X43429Y-44461D01*
X43007Y-44461D01*
X42974Y-44475D01*
X42950Y-44499D01*
X42935Y-44484D01*
X43093Y-44325D01*
X43104Y-44330D01*
X43195Y-44330D01*
X43280Y-44295D01*
X43344Y-44231D01*
X43380Y-44146D01*
X43380Y-44055D01*
X43345Y-43970D01*
X43281Y-43906D01*
X43196Y-43870D01*
X43105Y-43870D01*
X43020Y-43905D01*
X42956Y-43969D01*
X42920Y-44054D01*
X42920Y-44145D01*
X42924Y-44156D01*
X42619Y-44461D01*
X42307Y-44461D01*
X42274Y-44475D01*
X42249Y-44500D01*
X42236Y-44533D01*
X42236Y-44568D01*
X42236Y-44918D01*
X42250Y-44951D01*
X42275Y-44976D01*
X42308Y-44989D01*
X42343Y-44989D01*
X42893Y-44989D01*
X42926Y-44975D01*
X42950Y-44951D01*
X42975Y-44976D01*
X43008Y-44989D01*
X43043Y-44989D01*
X43593Y-44989D01*
X43626Y-44975D01*
X43650Y-44951D01*
X43675Y-44976D01*
X43708Y-44989D01*
X43743Y-44989D01*
X44293Y-44989D01*
X44326Y-44975D01*
X44351Y-44950D01*
X44364Y-44917D01*
X44364Y-44882D01*
X44364Y-44573D01*
X44370Y-44567D01*
X44370Y-45190D01*
X44330Y-45229D01*
X44325Y-45224D01*
X44292Y-45211D01*
X44257Y-45211D01*
X43707Y-45211D01*
X43674Y-45225D01*
X43649Y-45250D01*
X43636Y-45283D01*
X43636Y-45318D01*
X43636Y-45585D01*
X41736Y-45585D01*
X41870Y-45530D01*
X41980Y-45421D01*
X42039Y-45278D01*
X42039Y-45123D01*
X41980Y-44980D01*
X41871Y-44870D01*
X41728Y-44811D01*
X41573Y-44811D01*
X41430Y-44870D01*
X41320Y-44979D01*
X41265Y-45112D01*
X41265Y-44286D01*
X41320Y-44420D01*
X41429Y-44530D01*
X41572Y-44589D01*
X41727Y-44589D01*
X41870Y-44530D01*
X41980Y-44421D01*
X42039Y-44278D01*
X42039Y-44123D01*
X41980Y-43980D01*
X41871Y-43870D01*
X41728Y-43811D01*
X41573Y-43811D01*
X41430Y-43870D01*
X41320Y-43979D01*
X41265Y-44112D01*
X41265Y-43286D01*
X41320Y-43420D01*
X41429Y-43530D01*
X41572Y-43589D01*
X41727Y-43589D01*
X41870Y-43530D01*
X41980Y-43421D01*
X42039Y-43278D01*
X42039Y-43123D01*
X41980Y-42980D01*
X41871Y-42870D01*
X41728Y-42811D01*
X41573Y-42811D01*
X41430Y-42870D01*
X41320Y-42979D01*
X41265Y-43112D01*
X41265Y-42545D01*
X41405Y-42685D01*
X41444Y-42711D01*
X41490Y-42720D01*
X42040Y-42720D01*
X42307Y-42987D01*
X42346Y-43013D01*
X42392Y-43022D01*
X42678Y-43022D01*
X42681Y-43028D01*
X42670Y-43058D01*
X42670Y-43093D01*
X42670Y-43257D01*
X42684Y-43290D01*
X42709Y-43315D01*
X42742Y-43328D01*
X42777Y-43328D01*
X43320Y-43328D01*
X43320Y-43540D01*
X43280Y-43580D01*
X42979Y-43580D01*
X42975Y-43570D01*
X42911Y-43506D01*
X42826Y-43470D01*
X42735Y-43470D01*
X42650Y-43505D01*
X42586Y-43569D01*
X42550Y-43654D01*
X42550Y-43745D01*
X42585Y-43830D01*
X42649Y-43894D01*
X42734Y-43930D01*
X42825Y-43930D01*
X42910Y-43895D01*
X42974Y-43831D01*
X42978Y-43820D01*
X43330Y-43820D01*
X43376Y-43811D01*
X43415Y-43785D01*
X43522Y-43676D01*
X43524Y-43675D01*
X43525Y-43675D01*
X43551Y-43636D01*
X43560Y-43590D01*
X43560Y-41420D01*
X43551Y-41374D01*
X43525Y-41335D01*
X43471Y-41281D01*
X43432Y-41255D01*
X43420Y-41252D01*
X43414Y-41238D01*
X43426Y-41209D01*
X43426Y-41174D01*
X43426Y-41010D01*
X43414Y-40982D01*
X43426Y-40953D01*
X43426Y-40918D01*
X43426Y-40754D01*
X43414Y-40726D01*
X43426Y-40697D01*
X43426Y-40662D01*
X43426Y-40498D01*
X43414Y-40471D01*
X43426Y-40442D01*
X43426Y-40407D01*
X43426Y-40243D01*
X43414Y-40215D01*
X43426Y-40186D01*
X43426Y-40151D01*
X43426Y-39987D01*
X43412Y-39954D01*
X43387Y-39929D01*
X43378Y-39925D01*
X43434Y-39870D01*
X43975Y-39870D01*
X44021Y-39861D01*
X44060Y-39835D01*
X44181Y-39713D01*
X44183Y-39714D01*
X44218Y-39714D01*
X44568Y-39714D01*
X44601Y-39700D01*
X44626Y-39675D01*
X44639Y-39642D01*
X44639Y-39607D01*
X44639Y-39120D01*
X44750Y-39120D01*
X44796Y-39111D01*
X44835Y-39085D01*
X45346Y-38573D01*
X45520Y-38573D01*
X45531Y-38597D01*
X45556Y-38622D01*
X45589Y-38635D01*
X45624Y-38635D01*
X45900Y-38635D01*
X45933Y-38621D01*
X45958Y-38596D01*
X45971Y-38563D01*
X45971Y-38528D01*
X45971Y-38292D01*
X45957Y-38259D01*
X45932Y-38234D01*
X45899Y-38221D01*
X45864Y-38221D01*
X45588Y-38221D01*
X45555Y-38235D01*
X45530Y-38260D01*
X45517Y-38293D01*
X45517Y-38328D01*
X45517Y-38333D01*
X45300Y-38333D01*
X45298Y-38333D01*
X45297Y-38333D01*
X45251Y-38342D01*
X45212Y-38368D01*
X45210Y-38370D01*
X44700Y-38880D01*
X44500Y-38880D01*
X44454Y-38889D01*
X44415Y-38915D01*
X44344Y-38986D01*
X44182Y-38986D01*
X44149Y-39000D01*
X44124Y-39025D01*
X44111Y-39058D01*
X44111Y-39093D01*
X44111Y-39444D01*
X43925Y-39630D01*
X43439Y-39630D01*
X43439Y-39607D01*
X43439Y-39057D01*
X43425Y-39024D01*
X43400Y-38999D01*
X43367Y-38986D01*
X43332Y-38986D01*
X42982Y-38986D01*
X42949Y-39000D01*
X42924Y-39025D01*
X42911Y-39058D01*
X42911Y-39093D01*
X42911Y-39444D01*
X42665Y-39690D01*
X42663Y-39688D01*
X42676Y-39675D01*
X42689Y-39642D01*
X42689Y-39607D01*
X42689Y-39057D01*
X42675Y-39024D01*
X42650Y-38999D01*
X42617Y-38986D01*
X42582Y-38986D01*
X42232Y-38986D01*
X42199Y-39000D01*
X42174Y-39025D01*
X42170Y-39035D01*
X42170Y-38600D01*
X42161Y-38554D01*
X42135Y-38515D01*
X42132Y-38513D01*
X42039Y-38419D01*
X42039Y-37882D01*
X42025Y-37849D01*
X42000Y-37824D01*
X41977Y-37815D01*
X42386Y-37815D01*
X42386Y-37818D01*
X42386Y-38168D01*
X42400Y-38201D01*
X42425Y-38226D01*
X42458Y-38239D01*
X42493Y-38239D01*
X43043Y-38239D01*
X43076Y-38225D01*
X43100Y-38201D01*
X43125Y-38226D01*
X43158Y-38239D01*
X43193Y-38239D01*
X43743Y-38239D01*
X43776Y-38225D01*
X43800Y-38201D01*
X43825Y-38226D01*
X43858Y-38239D01*
X43893Y-38239D01*
X44443Y-38239D01*
X44476Y-38225D01*
X44501Y-38200D01*
X44514Y-38167D01*
X44514Y-38165D01*
X46261Y-38165D01*
X46261Y-38518D01*
X46275Y-38551D01*
X46300Y-38576D01*
X46333Y-38589D01*
X46368Y-38589D01*
X46869Y-38589D01*
X46930Y-38649D01*
X46930Y-39310D01*
G36*
X47035Y-45585D02*
X46064Y-45585D01*
X46064Y-45282D01*
X46063Y-45281D01*
X46732Y-44611D01*
X46734Y-44610D01*
X46735Y-44610D01*
X46757Y-44576D01*
X46870Y-44530D01*
X46980Y-44421D01*
X47035Y-44287D01*
X47035Y-45585D01*
X47035Y-45585D01*
G37*
X47035Y-45585D02*
X46064Y-45585D01*
X46064Y-45282D01*
X46063Y-45281D01*
X46732Y-44611D01*
X46734Y-44610D01*
X46735Y-44610D01*
X46757Y-44576D01*
X46870Y-44530D01*
X46980Y-44421D01*
X47035Y-44287D01*
X47035Y-45585D01*
M02*
