M48
INCH,TZ
T1C0.012
T2C0.040
%
T1
X42410Y-40700
X42470Y-41980
X42530Y-39880
X42540Y-40340
X42540Y-41120
X42780Y-43700
X43150Y-44100
X43750Y-40100
X43750Y-40500
X43750Y-40950
X43750Y-41350
X43750Y-41750
X43750Y-42150
X43750Y-42550
X43750Y-43100
X43750Y-43500
X43760Y-44300
X44150Y-40100
X44150Y-40500
X44150Y-40950
X44150Y-41350
X44150Y-41750
X44150Y-42150
X44150Y-42550
X44150Y-43100
X44150Y-43500
X44550Y-40100
X44550Y-40500
X44550Y-40950
X44550Y-41350
X44550Y-41750
X44550Y-42150
X44550Y-42550
X44550Y-43100
X44550Y-43500
X45950Y-44320
X45960Y-41280
X46260Y-42610
T2
X41650Y-38200
X41650Y-39200
X41650Y-40200
X41650Y-41200
X41650Y-42200
X41650Y-43200
X41650Y-44200
X41650Y-45200
X46650Y-38200
X46650Y-39200
X46650Y-40200
X46650Y-41200
X46650Y-42200
X46650Y-43200
X46650Y-44200
X46650Y-45200
M30
