G04 (created by PCBNEW-RS274X (2012-01-19 BZR 3256)-stable) date 2013-01-22 오후 1:13:22*
G01*
G70*
G90*
%MOIN*%
G04 Gerber Fmt 3.4, Leading zero omitted, Abs format*
%FSLAX34Y34*%
G04 APERTURE LIST*
%ADD10C,0.006000*%
%ADD11C,0.028000*%
%ADD12R,0.060000X0.060000*%
%ADD13C,0.060000*%
G04 APERTURE END LIST*
G54D10*
G54D11*
X43750Y-40950D03*
X44150Y-40950D03*
X44550Y-40950D03*
X43750Y-41350D03*
X44150Y-41350D03*
X44550Y-41350D03*
X43750Y-41750D03*
X44150Y-41750D03*
X44550Y-41750D03*
X43750Y-42150D03*
X44150Y-42150D03*
X44550Y-42150D03*
X43750Y-42550D03*
X44150Y-42550D03*
X44550Y-42550D03*
G54D12*
X41650Y-38200D03*
G54D13*
X41650Y-39200D03*
X41650Y-40200D03*
X41650Y-41200D03*
X41650Y-42200D03*
X41650Y-43200D03*
X41650Y-44200D03*
X41650Y-45200D03*
G54D12*
X46650Y-38200D03*
G54D13*
X46650Y-39200D03*
X46650Y-40200D03*
X46650Y-41200D03*
X46650Y-42200D03*
X46650Y-43200D03*
X46650Y-44200D03*
X46650Y-45200D03*
G54D11*
X42780Y-43700D03*
X42530Y-39880D03*
X43760Y-44300D03*
X46260Y-42610D03*
X43150Y-44100D03*
X45960Y-41280D03*
X42540Y-40340D03*
X42410Y-40700D03*
X42470Y-41980D03*
X44550Y-40500D03*
X43750Y-40100D03*
X44150Y-40100D03*
X44150Y-40500D03*
X44550Y-40100D03*
X44550Y-43100D03*
X43750Y-43100D03*
X44150Y-43100D03*
X44550Y-43500D03*
X43750Y-43500D03*
X44150Y-43500D03*
X43750Y-40500D03*
X45950Y-44320D03*
X42540Y-41120D03*
G54D10*
X42780Y-43700D02*
X42780Y-43950D01*
X42780Y-43950D02*
X41650Y-45080D01*
X41650Y-45080D02*
X41650Y-45200D01*
X46710Y-39700D02*
X47050Y-40040D01*
X42530Y-39880D02*
X42710Y-39700D01*
X47050Y-40040D02*
X47050Y-43800D01*
X42710Y-39700D02*
X46710Y-39700D01*
X47050Y-43800D02*
X46650Y-44200D01*
X46250Y-44400D02*
X45940Y-44710D01*
X46260Y-42610D02*
X46250Y-42620D01*
X45940Y-44710D02*
X44500Y-44710D01*
X46250Y-42620D02*
X46250Y-44330D01*
X43760Y-44300D02*
X44090Y-44300D01*
X46250Y-44330D02*
X46250Y-44400D01*
X44090Y-44300D02*
X44500Y-44710D01*
X46114Y-42216D02*
X45820Y-42510D01*
X46114Y-41434D02*
X46114Y-42216D01*
X45560Y-43900D02*
X45820Y-43640D01*
X43150Y-44100D02*
X43350Y-43900D01*
X45960Y-41280D02*
X46114Y-41434D01*
X43350Y-43900D02*
X45560Y-43900D01*
X45820Y-42510D02*
X45820Y-43640D01*
X41375Y-39915D02*
X41250Y-40040D01*
X41250Y-41800D02*
X41650Y-42200D01*
X41490Y-39800D02*
X42000Y-39800D01*
X42000Y-39800D02*
X42540Y-40340D01*
X41375Y-39915D02*
X41490Y-39800D01*
X41250Y-40040D02*
X41250Y-41800D01*
X42180Y-40700D02*
X42410Y-40700D01*
X42050Y-40830D02*
X42050Y-42800D01*
X42050Y-42800D02*
X41650Y-43200D01*
X42050Y-40830D02*
X42180Y-40700D01*
X42470Y-41980D02*
X42360Y-42090D01*
X42360Y-42090D02*
X42360Y-43490D01*
X42360Y-43490D02*
X41650Y-44200D01*
X44550Y-40100D02*
X44550Y-40500D01*
X44550Y-43500D02*
X44550Y-43100D01*
X44150Y-40500D02*
X43750Y-40500D01*
X43750Y-40100D02*
X44150Y-40100D01*
X44150Y-43100D02*
X43750Y-43100D01*
X43750Y-43500D02*
X44150Y-43500D01*
X45950Y-44320D02*
X45950Y-42720D01*
X46250Y-42270D02*
X46250Y-40870D01*
X42540Y-41120D02*
X42870Y-40790D01*
X43890Y-39830D02*
X46030Y-39830D01*
X45950Y-42570D02*
X46250Y-42270D01*
X42870Y-40790D02*
X42870Y-40450D01*
X42970Y-39830D02*
X42870Y-39930D01*
X42870Y-39930D02*
X42870Y-40450D01*
X45950Y-42720D02*
X45950Y-42570D01*
X46030Y-39830D02*
X46250Y-40050D01*
X43890Y-39830D02*
X42970Y-39830D01*
X46250Y-40050D02*
X46250Y-40870D01*
G36*
X47035Y-39855D02*
X46795Y-39615D01*
X46756Y-39589D01*
X46710Y-39580D01*
X42710Y-39580D01*
X42664Y-39589D01*
X42625Y-39615D01*
X42623Y-39617D01*
X42586Y-39654D01*
X42576Y-39650D01*
X42485Y-39650D01*
X42400Y-39685D01*
X42336Y-39749D01*
X42300Y-39834D01*
X42300Y-39925D01*
X42303Y-39934D01*
X42085Y-39715D01*
X42046Y-39689D01*
X42000Y-39680D01*
X41490Y-39680D01*
X41444Y-39689D01*
X41405Y-39715D01*
X41403Y-39717D01*
X41290Y-39830D01*
X41288Y-39832D01*
X41265Y-39855D01*
X41265Y-39286D01*
X41320Y-39420D01*
X41429Y-39530D01*
X41572Y-39589D01*
X41727Y-39589D01*
X41870Y-39530D01*
X41980Y-39421D01*
X42039Y-39278D01*
X42039Y-39123D01*
X41980Y-38980D01*
X41871Y-38870D01*
X41728Y-38811D01*
X41573Y-38811D01*
X41430Y-38870D01*
X41320Y-38979D01*
X41265Y-39112D01*
X41265Y-38527D01*
X41275Y-38551D01*
X41300Y-38576D01*
X41333Y-38589D01*
X41368Y-38589D01*
X41968Y-38589D01*
X42001Y-38575D01*
X42026Y-38550D01*
X42039Y-38517D01*
X42039Y-38482D01*
X42039Y-37882D01*
X42025Y-37849D01*
X42000Y-37824D01*
X41977Y-37815D01*
X46322Y-37815D01*
X46299Y-37825D01*
X46274Y-37850D01*
X46261Y-37883D01*
X46261Y-37918D01*
X46261Y-38518D01*
X46275Y-38551D01*
X46300Y-38576D01*
X46333Y-38589D01*
X46368Y-38589D01*
X46968Y-38589D01*
X47001Y-38575D01*
X47026Y-38550D01*
X47035Y-38527D01*
X47035Y-39855D01*
X47035Y-39855D01*
G37*
X47035Y-39855D02*
X46795Y-39615D01*
X46756Y-39589D01*
X46710Y-39580D01*
X42710Y-39580D01*
X42664Y-39589D01*
X42625Y-39615D01*
X42623Y-39617D01*
X42586Y-39654D01*
X42576Y-39650D01*
X42485Y-39650D01*
X42400Y-39685D01*
X42336Y-39749D01*
X42300Y-39834D01*
X42300Y-39925D01*
X42303Y-39934D01*
X42085Y-39715D01*
X42046Y-39689D01*
X42000Y-39680D01*
X41490Y-39680D01*
X41444Y-39689D01*
X41405Y-39715D01*
X41403Y-39717D01*
X41290Y-39830D01*
X41288Y-39832D01*
X41265Y-39855D01*
X41265Y-39286D01*
X41320Y-39420D01*
X41429Y-39530D01*
X41572Y-39589D01*
X41727Y-39589D01*
X41870Y-39530D01*
X41980Y-39421D01*
X42039Y-39278D01*
X42039Y-39123D01*
X41980Y-38980D01*
X41871Y-38870D01*
X41728Y-38811D01*
X41573Y-38811D01*
X41430Y-38870D01*
X41320Y-38979D01*
X41265Y-39112D01*
X41265Y-38527D01*
X41275Y-38551D01*
X41300Y-38576D01*
X41333Y-38589D01*
X41368Y-38589D01*
X41968Y-38589D01*
X42001Y-38575D01*
X42026Y-38550D01*
X42039Y-38517D01*
X42039Y-38482D01*
X42039Y-37882D01*
X42025Y-37849D01*
X42000Y-37824D01*
X41977Y-37815D01*
X46322Y-37815D01*
X46299Y-37825D01*
X46274Y-37850D01*
X46261Y-37883D01*
X46261Y-37918D01*
X46261Y-38518D01*
X46275Y-38551D01*
X46300Y-38576D01*
X46333Y-38589D01*
X46368Y-38589D01*
X46968Y-38589D01*
X47001Y-38575D01*
X47026Y-38550D01*
X47035Y-38527D01*
X47035Y-39855D01*
G36*
X47035Y-45585D02*
X41736Y-45585D01*
X41870Y-45530D01*
X41980Y-45421D01*
X42039Y-45278D01*
X42039Y-45123D01*
X41980Y-44980D01*
X41950Y-44949D01*
X42865Y-44035D01*
X42891Y-43996D01*
X42900Y-43950D01*
X42900Y-43899D01*
X42910Y-43895D01*
X42974Y-43831D01*
X43010Y-43746D01*
X43010Y-43655D01*
X42975Y-43570D01*
X42911Y-43506D01*
X42826Y-43470D01*
X42735Y-43470D01*
X42650Y-43505D01*
X42586Y-43569D01*
X42550Y-43654D01*
X42550Y-43745D01*
X42585Y-43830D01*
X42649Y-43894D01*
X42660Y-43898D01*
X42660Y-43899D01*
X42660Y-43900D01*
X41742Y-44817D01*
X41728Y-44811D01*
X41573Y-44811D01*
X41430Y-44870D01*
X41320Y-44979D01*
X41265Y-45112D01*
X41265Y-44286D01*
X41320Y-44420D01*
X41429Y-44530D01*
X41572Y-44589D01*
X41727Y-44589D01*
X41870Y-44530D01*
X41980Y-44421D01*
X42039Y-44278D01*
X42039Y-44123D01*
X41997Y-44022D01*
X42445Y-43575D01*
X42471Y-43536D01*
X42480Y-43490D01*
X42480Y-42210D01*
X42515Y-42210D01*
X42600Y-42175D01*
X42664Y-42111D01*
X42700Y-42026D01*
X42700Y-41935D01*
X42665Y-41850D01*
X42601Y-41786D01*
X42516Y-41750D01*
X42425Y-41750D01*
X42340Y-41785D01*
X42276Y-41849D01*
X42240Y-41934D01*
X42240Y-42025D01*
X42248Y-42045D01*
X42240Y-42090D01*
X42240Y-43440D01*
X41827Y-43852D01*
X41728Y-43811D01*
X41573Y-43811D01*
X41430Y-43870D01*
X41320Y-43979D01*
X41265Y-44112D01*
X41265Y-43286D01*
X41320Y-43420D01*
X41429Y-43530D01*
X41572Y-43589D01*
X41727Y-43589D01*
X41870Y-43530D01*
X41980Y-43421D01*
X42039Y-43278D01*
X42039Y-43123D01*
X41997Y-43022D01*
X42132Y-42886D01*
X42134Y-42885D01*
X42135Y-42885D01*
X42161Y-42846D01*
X42170Y-42800D01*
X42170Y-40879D01*
X42217Y-40832D01*
X42279Y-40894D01*
X42364Y-40930D01*
X42405Y-40930D01*
X42346Y-40989D01*
X42310Y-41074D01*
X42310Y-41165D01*
X42345Y-41250D01*
X42409Y-41314D01*
X42494Y-41350D01*
X42585Y-41350D01*
X42670Y-41315D01*
X42734Y-41251D01*
X42770Y-41166D01*
X42770Y-41075D01*
X42765Y-41064D01*
X42952Y-40876D01*
X42954Y-40875D01*
X42955Y-40875D01*
X42981Y-40836D01*
X42990Y-40790D01*
X42990Y-40450D01*
X42990Y-39980D01*
X43020Y-39950D01*
X43890Y-39950D01*
X45980Y-39950D01*
X46130Y-40100D01*
X46130Y-40870D01*
X46130Y-41125D01*
X46091Y-41086D01*
X46006Y-41050D01*
X45915Y-41050D01*
X45830Y-41085D01*
X45766Y-41149D01*
X45730Y-41234D01*
X45730Y-41325D01*
X45765Y-41410D01*
X45829Y-41474D01*
X45914Y-41510D01*
X45994Y-41510D01*
X45994Y-42166D01*
X45735Y-42425D01*
X45709Y-42464D01*
X45700Y-42510D01*
X45700Y-43590D01*
X45510Y-43780D01*
X43350Y-43780D01*
X43349Y-43780D01*
X43340Y-43781D01*
X43304Y-43789D01*
X43265Y-43815D01*
X43263Y-43817D01*
X43206Y-43874D01*
X43196Y-43870D01*
X43105Y-43870D01*
X43020Y-43905D01*
X42956Y-43969D01*
X42920Y-44054D01*
X42920Y-44145D01*
X42955Y-44230D01*
X43019Y-44294D01*
X43104Y-44330D01*
X43195Y-44330D01*
X43280Y-44295D01*
X43344Y-44231D01*
X43380Y-44146D01*
X43380Y-44055D01*
X43375Y-44043D01*
X43399Y-44020D01*
X45560Y-44020D01*
X45606Y-44011D01*
X45645Y-43985D01*
X45830Y-43799D01*
X45830Y-44120D01*
X45820Y-44125D01*
X45756Y-44189D01*
X45720Y-44274D01*
X45720Y-44365D01*
X45755Y-44450D01*
X45819Y-44514D01*
X45904Y-44550D01*
X45930Y-44550D01*
X45890Y-44590D01*
X44549Y-44590D01*
X44175Y-44215D01*
X44136Y-44189D01*
X44090Y-44180D01*
X43959Y-44180D01*
X43955Y-44170D01*
X43891Y-44106D01*
X43806Y-44070D01*
X43715Y-44070D01*
X43630Y-44105D01*
X43566Y-44169D01*
X43530Y-44254D01*
X43530Y-44345D01*
X43565Y-44430D01*
X43629Y-44494D01*
X43714Y-44530D01*
X43805Y-44530D01*
X43890Y-44495D01*
X43954Y-44431D01*
X43958Y-44420D01*
X44040Y-44420D01*
X44413Y-44792D01*
X44415Y-44795D01*
X44453Y-44820D01*
X44454Y-44821D01*
X44490Y-44828D01*
X44499Y-44830D01*
X44499Y-44829D01*
X44500Y-44830D01*
X45940Y-44830D01*
X45986Y-44821D01*
X46025Y-44795D01*
X46335Y-44485D01*
X46354Y-44455D01*
X46429Y-44530D01*
X46572Y-44589D01*
X46727Y-44589D01*
X46870Y-44530D01*
X46980Y-44421D01*
X47035Y-44287D01*
X47035Y-45585D01*
X47035Y-45585D01*
G37*
X47035Y-45585D02*
X41736Y-45585D01*
X41870Y-45530D01*
X41980Y-45421D01*
X42039Y-45278D01*
X42039Y-45123D01*
X41980Y-44980D01*
X41950Y-44949D01*
X42865Y-44035D01*
X42891Y-43996D01*
X42900Y-43950D01*
X42900Y-43899D01*
X42910Y-43895D01*
X42974Y-43831D01*
X43010Y-43746D01*
X43010Y-43655D01*
X42975Y-43570D01*
X42911Y-43506D01*
X42826Y-43470D01*
X42735Y-43470D01*
X42650Y-43505D01*
X42586Y-43569D01*
X42550Y-43654D01*
X42550Y-43745D01*
X42585Y-43830D01*
X42649Y-43894D01*
X42660Y-43898D01*
X42660Y-43899D01*
X42660Y-43900D01*
X41742Y-44817D01*
X41728Y-44811D01*
X41573Y-44811D01*
X41430Y-44870D01*
X41320Y-44979D01*
X41265Y-45112D01*
X41265Y-44286D01*
X41320Y-44420D01*
X41429Y-44530D01*
X41572Y-44589D01*
X41727Y-44589D01*
X41870Y-44530D01*
X41980Y-44421D01*
X42039Y-44278D01*
X42039Y-44123D01*
X41997Y-44022D01*
X42445Y-43575D01*
X42471Y-43536D01*
X42480Y-43490D01*
X42480Y-42210D01*
X42515Y-42210D01*
X42600Y-42175D01*
X42664Y-42111D01*
X42700Y-42026D01*
X42700Y-41935D01*
X42665Y-41850D01*
X42601Y-41786D01*
X42516Y-41750D01*
X42425Y-41750D01*
X42340Y-41785D01*
X42276Y-41849D01*
X42240Y-41934D01*
X42240Y-42025D01*
X42248Y-42045D01*
X42240Y-42090D01*
X42240Y-43440D01*
X41827Y-43852D01*
X41728Y-43811D01*
X41573Y-43811D01*
X41430Y-43870D01*
X41320Y-43979D01*
X41265Y-44112D01*
X41265Y-43286D01*
X41320Y-43420D01*
X41429Y-43530D01*
X41572Y-43589D01*
X41727Y-43589D01*
X41870Y-43530D01*
X41980Y-43421D01*
X42039Y-43278D01*
X42039Y-43123D01*
X41997Y-43022D01*
X42132Y-42886D01*
X42134Y-42885D01*
X42135Y-42885D01*
X42161Y-42846D01*
X42170Y-42800D01*
X42170Y-40879D01*
X42217Y-40832D01*
X42279Y-40894D01*
X42364Y-40930D01*
X42405Y-40930D01*
X42346Y-40989D01*
X42310Y-41074D01*
X42310Y-41165D01*
X42345Y-41250D01*
X42409Y-41314D01*
X42494Y-41350D01*
X42585Y-41350D01*
X42670Y-41315D01*
X42734Y-41251D01*
X42770Y-41166D01*
X42770Y-41075D01*
X42765Y-41064D01*
X42952Y-40876D01*
X42954Y-40875D01*
X42955Y-40875D01*
X42981Y-40836D01*
X42990Y-40790D01*
X42990Y-40450D01*
X42990Y-39980D01*
X43020Y-39950D01*
X43890Y-39950D01*
X45980Y-39950D01*
X46130Y-40100D01*
X46130Y-40870D01*
X46130Y-41125D01*
X46091Y-41086D01*
X46006Y-41050D01*
X45915Y-41050D01*
X45830Y-41085D01*
X45766Y-41149D01*
X45730Y-41234D01*
X45730Y-41325D01*
X45765Y-41410D01*
X45829Y-41474D01*
X45914Y-41510D01*
X45994Y-41510D01*
X45994Y-42166D01*
X45735Y-42425D01*
X45709Y-42464D01*
X45700Y-42510D01*
X45700Y-43590D01*
X45510Y-43780D01*
X43350Y-43780D01*
X43349Y-43780D01*
X43340Y-43781D01*
X43304Y-43789D01*
X43265Y-43815D01*
X43263Y-43817D01*
X43206Y-43874D01*
X43196Y-43870D01*
X43105Y-43870D01*
X43020Y-43905D01*
X42956Y-43969D01*
X42920Y-44054D01*
X42920Y-44145D01*
X42955Y-44230D01*
X43019Y-44294D01*
X43104Y-44330D01*
X43195Y-44330D01*
X43280Y-44295D01*
X43344Y-44231D01*
X43380Y-44146D01*
X43380Y-44055D01*
X43375Y-44043D01*
X43399Y-44020D01*
X45560Y-44020D01*
X45606Y-44011D01*
X45645Y-43985D01*
X45830Y-43799D01*
X45830Y-44120D01*
X45820Y-44125D01*
X45756Y-44189D01*
X45720Y-44274D01*
X45720Y-44365D01*
X45755Y-44450D01*
X45819Y-44514D01*
X45904Y-44550D01*
X45930Y-44550D01*
X45890Y-44590D01*
X44549Y-44590D01*
X44175Y-44215D01*
X44136Y-44189D01*
X44090Y-44180D01*
X43959Y-44180D01*
X43955Y-44170D01*
X43891Y-44106D01*
X43806Y-44070D01*
X43715Y-44070D01*
X43630Y-44105D01*
X43566Y-44169D01*
X43530Y-44254D01*
X43530Y-44345D01*
X43565Y-44430D01*
X43629Y-44494D01*
X43714Y-44530D01*
X43805Y-44530D01*
X43890Y-44495D01*
X43954Y-44431D01*
X43958Y-44420D01*
X44040Y-44420D01*
X44413Y-44792D01*
X44415Y-44795D01*
X44453Y-44820D01*
X44454Y-44821D01*
X44490Y-44828D01*
X44499Y-44830D01*
X44499Y-44829D01*
X44500Y-44830D01*
X45940Y-44830D01*
X45986Y-44821D01*
X46025Y-44795D01*
X46335Y-44485D01*
X46354Y-44455D01*
X46429Y-44530D01*
X46572Y-44589D01*
X46727Y-44589D01*
X46870Y-44530D01*
X46980Y-44421D01*
X47035Y-44287D01*
X47035Y-45585D01*
M02*
