G04 (created by PCBNEW-RS274X (2012-01-19 BZR 3256)-stable) date 2013-01-22 오후 1:13:22*
G01*
G70*
G90*
%MOIN*%
G04 Gerber Fmt 3.4, Leading zero omitted, Abs format*
%FSLAX34Y34*%
G04 APERTURE LIST*
%ADD10C,0.006000*%
%ADD11R,0.075000X0.055000*%
%ADD12R,0.055000X0.075000*%
%ADD13R,0.077900X0.036500*%
%ADD14R,0.142000X0.223900*%
%ADD15C,0.048000*%
%ADD16R,0.047600X0.043600*%
%ADD17R,0.055400X0.047600*%
%ADD18R,0.080000X0.080000*%
%ADD19C,0.080000*%
G04 APERTURE END LIST*
G54D10*
G54D11*
X44890Y-45475D03*
X44890Y-44725D03*
G54D12*
X44375Y-39350D03*
X43625Y-39350D03*
G54D11*
X42750Y-37975D03*
X42750Y-38725D03*
X44000Y-44725D03*
X44000Y-45475D03*
X44150Y-37975D03*
X44150Y-38725D03*
X43450Y-37975D03*
X43450Y-38725D03*
X43300Y-44725D03*
X43300Y-45475D03*
X42600Y-44725D03*
X42600Y-45475D03*
X45700Y-45475D03*
X45700Y-44725D03*
G54D12*
X43175Y-39350D03*
X42425Y-39350D03*
G54D13*
X45252Y-41878D03*
X45252Y-41622D03*
X45252Y-41366D03*
X45252Y-41110D03*
X43050Y-42642D03*
X45252Y-42646D03*
X45252Y-42390D03*
X45252Y-42134D03*
X43048Y-40854D03*
X43048Y-41110D03*
X43048Y-41366D03*
X43048Y-41622D03*
X43048Y-41878D03*
X43048Y-42134D03*
X45252Y-40854D03*
X43050Y-42390D03*
X45252Y-42902D03*
X45252Y-40598D03*
X43048Y-40598D03*
X43048Y-42902D03*
X45252Y-43157D03*
X45252Y-40343D03*
X43048Y-40343D03*
X43048Y-43157D03*
X45252Y-43413D03*
X45252Y-40087D03*
X43048Y-40087D03*
X43048Y-43413D03*
G54D14*
X44150Y-41750D03*
G54D15*
X43750Y-40950D03*
X44150Y-40950D03*
X44550Y-40950D03*
X43750Y-41350D03*
X44150Y-41350D03*
X44550Y-41350D03*
X43750Y-41750D03*
X44150Y-41750D03*
X44550Y-41750D03*
X43750Y-42150D03*
X44150Y-42150D03*
X44550Y-42150D03*
X43750Y-42550D03*
X44150Y-42550D03*
X44550Y-42550D03*
G54D16*
X45744Y-38428D03*
G54D17*
X45350Y-39372D03*
G54D16*
X44956Y-38428D03*
G54D18*
X41650Y-38200D03*
G54D19*
X41650Y-39200D03*
X41650Y-40200D03*
X41650Y-41200D03*
X41650Y-42200D03*
X41650Y-43200D03*
X41650Y-44200D03*
X41650Y-45200D03*
G54D18*
X46650Y-38200D03*
G54D19*
X46650Y-39200D03*
X46650Y-40200D03*
X46650Y-41200D03*
X46650Y-42200D03*
X46650Y-43200D03*
X46650Y-44200D03*
X46650Y-45200D03*
M02*
