G04 (created by PCBNEW (2012-01-19 BZR 3256)-stable) date 2013-01-21 오후 7:47:57*
G01*
G70*
G90*
%MOIN*%
G04 Gerber Fmt 3.4, Leading zero omitted, Abs format*
%FSLAX34Y34*%
G04 APERTURE LIST*
%ADD10C,0.001000*%
%ADD11C,0.005000*%
%ADD12C,0.008000*%
G04 APERTURE END LIST*
G54D10*
G54D11*
X47150Y-45700D02*
X47150Y-37700D01*
X41150Y-45700D02*
X47150Y-45700D01*
X41150Y-37700D02*
X41150Y-45700D01*
X47150Y-37700D02*
X41150Y-37700D01*
G54D10*
X42350Y-40640D02*
X42470Y-40760D01*
X42470Y-40640D02*
X42350Y-40760D01*
X42410Y-41920D02*
X42530Y-42040D01*
X42530Y-41920D02*
X42410Y-42040D01*
X42470Y-39820D02*
X42590Y-39940D01*
X42590Y-39820D02*
X42470Y-39940D01*
X42480Y-40280D02*
X42600Y-40400D01*
X42600Y-40280D02*
X42480Y-40400D01*
X42480Y-41060D02*
X42600Y-41180D01*
X42600Y-41060D02*
X42480Y-41180D01*
X42720Y-43640D02*
X42840Y-43760D01*
X42840Y-43640D02*
X42720Y-43760D01*
X43090Y-44040D02*
X43210Y-44160D01*
X43210Y-44040D02*
X43090Y-44160D01*
X43690Y-40040D02*
X43810Y-40160D01*
X43810Y-40040D02*
X43690Y-40160D01*
X43690Y-40440D02*
X43810Y-40560D01*
X43810Y-40440D02*
X43690Y-40560D01*
X43690Y-40890D02*
X43810Y-41010D01*
X43810Y-40890D02*
X43690Y-41010D01*
X43690Y-41290D02*
X43810Y-41410D01*
X43810Y-41290D02*
X43690Y-41410D01*
X43690Y-41690D02*
X43810Y-41810D01*
X43810Y-41690D02*
X43690Y-41810D01*
X43690Y-42090D02*
X43810Y-42210D01*
X43810Y-42090D02*
X43690Y-42210D01*
X43690Y-42490D02*
X43810Y-42610D01*
X43810Y-42490D02*
X43690Y-42610D01*
X43690Y-43040D02*
X43810Y-43160D01*
X43810Y-43040D02*
X43690Y-43160D01*
X43690Y-43440D02*
X43810Y-43560D01*
X43810Y-43440D02*
X43690Y-43560D01*
X43700Y-44240D02*
X43820Y-44360D01*
X43820Y-44240D02*
X43700Y-44360D01*
X44090Y-40040D02*
X44210Y-40160D01*
X44210Y-40040D02*
X44090Y-40160D01*
X44090Y-40440D02*
X44210Y-40560D01*
X44210Y-40440D02*
X44090Y-40560D01*
X44090Y-40890D02*
X44210Y-41010D01*
X44210Y-40890D02*
X44090Y-41010D01*
X44090Y-41290D02*
X44210Y-41410D01*
X44210Y-41290D02*
X44090Y-41410D01*
X44090Y-41690D02*
X44210Y-41810D01*
X44210Y-41690D02*
X44090Y-41810D01*
X44090Y-42090D02*
X44210Y-42210D01*
X44210Y-42090D02*
X44090Y-42210D01*
X44090Y-42490D02*
X44210Y-42610D01*
X44210Y-42490D02*
X44090Y-42610D01*
X44090Y-43040D02*
X44210Y-43160D01*
X44210Y-43040D02*
X44090Y-43160D01*
X44090Y-43440D02*
X44210Y-43560D01*
X44210Y-43440D02*
X44090Y-43560D01*
X44490Y-40040D02*
X44610Y-40160D01*
X44610Y-40040D02*
X44490Y-40160D01*
X44490Y-40440D02*
X44610Y-40560D01*
X44610Y-40440D02*
X44490Y-40560D01*
X44490Y-40890D02*
X44610Y-41010D01*
X44610Y-40890D02*
X44490Y-41010D01*
X44490Y-41290D02*
X44610Y-41410D01*
X44610Y-41290D02*
X44490Y-41410D01*
X44490Y-41690D02*
X44610Y-41810D01*
X44610Y-41690D02*
X44490Y-41810D01*
X44490Y-42090D02*
X44610Y-42210D01*
X44610Y-42090D02*
X44490Y-42210D01*
X44490Y-42490D02*
X44610Y-42610D01*
X44610Y-42490D02*
X44490Y-42610D01*
X44490Y-43040D02*
X44610Y-43160D01*
X44610Y-43040D02*
X44490Y-43160D01*
X44490Y-43440D02*
X44610Y-43560D01*
X44610Y-43440D02*
X44490Y-43560D01*
X45890Y-44260D02*
X46010Y-44380D01*
X46010Y-44260D02*
X45890Y-44380D01*
X45900Y-41220D02*
X46020Y-41340D01*
X46020Y-41220D02*
X45900Y-41340D01*
X46200Y-42550D02*
X46320Y-42670D01*
X46320Y-42550D02*
X46200Y-42670D01*
X41850Y-38200D02*
X41846Y-38238D01*
X41834Y-38276D01*
X41816Y-38310D01*
X41791Y-38340D01*
X41761Y-38365D01*
X41727Y-38384D01*
X41690Y-38395D01*
X41651Y-38399D01*
X41613Y-38396D01*
X41576Y-38385D01*
X41541Y-38367D01*
X41511Y-38342D01*
X41485Y-38312D01*
X41467Y-38278D01*
X41455Y-38241D01*
X41451Y-38202D01*
X41454Y-38164D01*
X41465Y-38127D01*
X41482Y-38092D01*
X41507Y-38062D01*
X41536Y-38036D01*
X41570Y-38017D01*
X41608Y-38005D01*
X41646Y-38001D01*
X41684Y-38004D01*
X41722Y-38014D01*
X41757Y-38032D01*
X41787Y-38056D01*
X41813Y-38085D01*
X41832Y-38119D01*
X41845Y-38156D01*
X41849Y-38195D01*
X41850Y-38200D01*
X41850Y-39200D02*
X41846Y-39238D01*
X41834Y-39276D01*
X41816Y-39310D01*
X41791Y-39340D01*
X41761Y-39365D01*
X41727Y-39384D01*
X41690Y-39395D01*
X41651Y-39399D01*
X41613Y-39396D01*
X41576Y-39385D01*
X41541Y-39367D01*
X41511Y-39342D01*
X41485Y-39312D01*
X41467Y-39278D01*
X41455Y-39241D01*
X41451Y-39202D01*
X41454Y-39164D01*
X41465Y-39127D01*
X41482Y-39092D01*
X41507Y-39062D01*
X41536Y-39036D01*
X41570Y-39017D01*
X41608Y-39005D01*
X41646Y-39001D01*
X41684Y-39004D01*
X41722Y-39014D01*
X41757Y-39032D01*
X41787Y-39056D01*
X41813Y-39085D01*
X41832Y-39119D01*
X41845Y-39156D01*
X41849Y-39195D01*
X41850Y-39200D01*
X41850Y-40200D02*
X41846Y-40238D01*
X41834Y-40276D01*
X41816Y-40310D01*
X41791Y-40340D01*
X41761Y-40365D01*
X41727Y-40384D01*
X41690Y-40395D01*
X41651Y-40399D01*
X41613Y-40396D01*
X41576Y-40385D01*
X41541Y-40367D01*
X41511Y-40342D01*
X41485Y-40312D01*
X41467Y-40278D01*
X41455Y-40241D01*
X41451Y-40202D01*
X41454Y-40164D01*
X41465Y-40127D01*
X41482Y-40092D01*
X41507Y-40062D01*
X41536Y-40036D01*
X41570Y-40017D01*
X41608Y-40005D01*
X41646Y-40001D01*
X41684Y-40004D01*
X41722Y-40014D01*
X41757Y-40032D01*
X41787Y-40056D01*
X41813Y-40085D01*
X41832Y-40119D01*
X41845Y-40156D01*
X41849Y-40195D01*
X41850Y-40200D01*
X41850Y-41200D02*
X41846Y-41238D01*
X41834Y-41276D01*
X41816Y-41310D01*
X41791Y-41340D01*
X41761Y-41365D01*
X41727Y-41384D01*
X41690Y-41395D01*
X41651Y-41399D01*
X41613Y-41396D01*
X41576Y-41385D01*
X41541Y-41367D01*
X41511Y-41342D01*
X41485Y-41312D01*
X41467Y-41278D01*
X41455Y-41241D01*
X41451Y-41202D01*
X41454Y-41164D01*
X41465Y-41127D01*
X41482Y-41092D01*
X41507Y-41062D01*
X41536Y-41036D01*
X41570Y-41017D01*
X41608Y-41005D01*
X41646Y-41001D01*
X41684Y-41004D01*
X41722Y-41014D01*
X41757Y-41032D01*
X41787Y-41056D01*
X41813Y-41085D01*
X41832Y-41119D01*
X41845Y-41156D01*
X41849Y-41195D01*
X41850Y-41200D01*
X41850Y-42200D02*
X41846Y-42238D01*
X41834Y-42276D01*
X41816Y-42310D01*
X41791Y-42340D01*
X41761Y-42365D01*
X41727Y-42384D01*
X41690Y-42395D01*
X41651Y-42399D01*
X41613Y-42396D01*
X41576Y-42385D01*
X41541Y-42367D01*
X41511Y-42342D01*
X41485Y-42312D01*
X41467Y-42278D01*
X41455Y-42241D01*
X41451Y-42202D01*
X41454Y-42164D01*
X41465Y-42127D01*
X41482Y-42092D01*
X41507Y-42062D01*
X41536Y-42036D01*
X41570Y-42017D01*
X41608Y-42005D01*
X41646Y-42001D01*
X41684Y-42004D01*
X41722Y-42014D01*
X41757Y-42032D01*
X41787Y-42056D01*
X41813Y-42085D01*
X41832Y-42119D01*
X41845Y-42156D01*
X41849Y-42195D01*
X41850Y-42200D01*
X41850Y-43200D02*
X41846Y-43238D01*
X41834Y-43276D01*
X41816Y-43310D01*
X41791Y-43340D01*
X41761Y-43365D01*
X41727Y-43384D01*
X41690Y-43395D01*
X41651Y-43399D01*
X41613Y-43396D01*
X41576Y-43385D01*
X41541Y-43367D01*
X41511Y-43342D01*
X41485Y-43312D01*
X41467Y-43278D01*
X41455Y-43241D01*
X41451Y-43202D01*
X41454Y-43164D01*
X41465Y-43127D01*
X41482Y-43092D01*
X41507Y-43062D01*
X41536Y-43036D01*
X41570Y-43017D01*
X41608Y-43005D01*
X41646Y-43001D01*
X41684Y-43004D01*
X41722Y-43014D01*
X41757Y-43032D01*
X41787Y-43056D01*
X41813Y-43085D01*
X41832Y-43119D01*
X41845Y-43156D01*
X41849Y-43195D01*
X41850Y-43200D01*
X41850Y-44200D02*
X41846Y-44238D01*
X41834Y-44276D01*
X41816Y-44310D01*
X41791Y-44340D01*
X41761Y-44365D01*
X41727Y-44384D01*
X41690Y-44395D01*
X41651Y-44399D01*
X41613Y-44396D01*
X41576Y-44385D01*
X41541Y-44367D01*
X41511Y-44342D01*
X41485Y-44312D01*
X41467Y-44278D01*
X41455Y-44241D01*
X41451Y-44202D01*
X41454Y-44164D01*
X41465Y-44127D01*
X41482Y-44092D01*
X41507Y-44062D01*
X41536Y-44036D01*
X41570Y-44017D01*
X41608Y-44005D01*
X41646Y-44001D01*
X41684Y-44004D01*
X41722Y-44014D01*
X41757Y-44032D01*
X41787Y-44056D01*
X41813Y-44085D01*
X41832Y-44119D01*
X41845Y-44156D01*
X41849Y-44195D01*
X41850Y-44200D01*
X41850Y-45200D02*
X41846Y-45238D01*
X41834Y-45276D01*
X41816Y-45310D01*
X41791Y-45340D01*
X41761Y-45365D01*
X41727Y-45384D01*
X41690Y-45395D01*
X41651Y-45399D01*
X41613Y-45396D01*
X41576Y-45385D01*
X41541Y-45367D01*
X41511Y-45342D01*
X41485Y-45312D01*
X41467Y-45278D01*
X41455Y-45241D01*
X41451Y-45202D01*
X41454Y-45164D01*
X41465Y-45127D01*
X41482Y-45092D01*
X41507Y-45062D01*
X41536Y-45036D01*
X41570Y-45017D01*
X41608Y-45005D01*
X41646Y-45001D01*
X41684Y-45004D01*
X41722Y-45014D01*
X41757Y-45032D01*
X41787Y-45056D01*
X41813Y-45085D01*
X41832Y-45119D01*
X41845Y-45156D01*
X41849Y-45195D01*
X41850Y-45200D01*
X46850Y-38200D02*
X46846Y-38238D01*
X46834Y-38276D01*
X46816Y-38310D01*
X46791Y-38340D01*
X46761Y-38365D01*
X46727Y-38384D01*
X46690Y-38395D01*
X46651Y-38399D01*
X46613Y-38396D01*
X46576Y-38385D01*
X46541Y-38367D01*
X46511Y-38342D01*
X46485Y-38312D01*
X46467Y-38278D01*
X46455Y-38241D01*
X46451Y-38202D01*
X46454Y-38164D01*
X46465Y-38127D01*
X46482Y-38092D01*
X46507Y-38062D01*
X46536Y-38036D01*
X46570Y-38017D01*
X46608Y-38005D01*
X46646Y-38001D01*
X46684Y-38004D01*
X46722Y-38014D01*
X46757Y-38032D01*
X46787Y-38056D01*
X46813Y-38085D01*
X46832Y-38119D01*
X46845Y-38156D01*
X46849Y-38195D01*
X46850Y-38200D01*
X46850Y-39200D02*
X46846Y-39238D01*
X46834Y-39276D01*
X46816Y-39310D01*
X46791Y-39340D01*
X46761Y-39365D01*
X46727Y-39384D01*
X46690Y-39395D01*
X46651Y-39399D01*
X46613Y-39396D01*
X46576Y-39385D01*
X46541Y-39367D01*
X46511Y-39342D01*
X46485Y-39312D01*
X46467Y-39278D01*
X46455Y-39241D01*
X46451Y-39202D01*
X46454Y-39164D01*
X46465Y-39127D01*
X46482Y-39092D01*
X46507Y-39062D01*
X46536Y-39036D01*
X46570Y-39017D01*
X46608Y-39005D01*
X46646Y-39001D01*
X46684Y-39004D01*
X46722Y-39014D01*
X46757Y-39032D01*
X46787Y-39056D01*
X46813Y-39085D01*
X46832Y-39119D01*
X46845Y-39156D01*
X46849Y-39195D01*
X46850Y-39200D01*
X46850Y-40200D02*
X46846Y-40238D01*
X46834Y-40276D01*
X46816Y-40310D01*
X46791Y-40340D01*
X46761Y-40365D01*
X46727Y-40384D01*
X46690Y-40395D01*
X46651Y-40399D01*
X46613Y-40396D01*
X46576Y-40385D01*
X46541Y-40367D01*
X46511Y-40342D01*
X46485Y-40312D01*
X46467Y-40278D01*
X46455Y-40241D01*
X46451Y-40202D01*
X46454Y-40164D01*
X46465Y-40127D01*
X46482Y-40092D01*
X46507Y-40062D01*
X46536Y-40036D01*
X46570Y-40017D01*
X46608Y-40005D01*
X46646Y-40001D01*
X46684Y-40004D01*
X46722Y-40014D01*
X46757Y-40032D01*
X46787Y-40056D01*
X46813Y-40085D01*
X46832Y-40119D01*
X46845Y-40156D01*
X46849Y-40195D01*
X46850Y-40200D01*
X46850Y-41200D02*
X46846Y-41238D01*
X46834Y-41276D01*
X46816Y-41310D01*
X46791Y-41340D01*
X46761Y-41365D01*
X46727Y-41384D01*
X46690Y-41395D01*
X46651Y-41399D01*
X46613Y-41396D01*
X46576Y-41385D01*
X46541Y-41367D01*
X46511Y-41342D01*
X46485Y-41312D01*
X46467Y-41278D01*
X46455Y-41241D01*
X46451Y-41202D01*
X46454Y-41164D01*
X46465Y-41127D01*
X46482Y-41092D01*
X46507Y-41062D01*
X46536Y-41036D01*
X46570Y-41017D01*
X46608Y-41005D01*
X46646Y-41001D01*
X46684Y-41004D01*
X46722Y-41014D01*
X46757Y-41032D01*
X46787Y-41056D01*
X46813Y-41085D01*
X46832Y-41119D01*
X46845Y-41156D01*
X46849Y-41195D01*
X46850Y-41200D01*
X46850Y-42200D02*
X46846Y-42238D01*
X46834Y-42276D01*
X46816Y-42310D01*
X46791Y-42340D01*
X46761Y-42365D01*
X46727Y-42384D01*
X46690Y-42395D01*
X46651Y-42399D01*
X46613Y-42396D01*
X46576Y-42385D01*
X46541Y-42367D01*
X46511Y-42342D01*
X46485Y-42312D01*
X46467Y-42278D01*
X46455Y-42241D01*
X46451Y-42202D01*
X46454Y-42164D01*
X46465Y-42127D01*
X46482Y-42092D01*
X46507Y-42062D01*
X46536Y-42036D01*
X46570Y-42017D01*
X46608Y-42005D01*
X46646Y-42001D01*
X46684Y-42004D01*
X46722Y-42014D01*
X46757Y-42032D01*
X46787Y-42056D01*
X46813Y-42085D01*
X46832Y-42119D01*
X46845Y-42156D01*
X46849Y-42195D01*
X46850Y-42200D01*
X46850Y-43200D02*
X46846Y-43238D01*
X46834Y-43276D01*
X46816Y-43310D01*
X46791Y-43340D01*
X46761Y-43365D01*
X46727Y-43384D01*
X46690Y-43395D01*
X46651Y-43399D01*
X46613Y-43396D01*
X46576Y-43385D01*
X46541Y-43367D01*
X46511Y-43342D01*
X46485Y-43312D01*
X46467Y-43278D01*
X46455Y-43241D01*
X46451Y-43202D01*
X46454Y-43164D01*
X46465Y-43127D01*
X46482Y-43092D01*
X46507Y-43062D01*
X46536Y-43036D01*
X46570Y-43017D01*
X46608Y-43005D01*
X46646Y-43001D01*
X46684Y-43004D01*
X46722Y-43014D01*
X46757Y-43032D01*
X46787Y-43056D01*
X46813Y-43085D01*
X46832Y-43119D01*
X46845Y-43156D01*
X46849Y-43195D01*
X46850Y-43200D01*
X46850Y-44200D02*
X46846Y-44238D01*
X46834Y-44276D01*
X46816Y-44310D01*
X46791Y-44340D01*
X46761Y-44365D01*
X46727Y-44384D01*
X46690Y-44395D01*
X46651Y-44399D01*
X46613Y-44396D01*
X46576Y-44385D01*
X46541Y-44367D01*
X46511Y-44342D01*
X46485Y-44312D01*
X46467Y-44278D01*
X46455Y-44241D01*
X46451Y-44202D01*
X46454Y-44164D01*
X46465Y-44127D01*
X46482Y-44092D01*
X46507Y-44062D01*
X46536Y-44036D01*
X46570Y-44017D01*
X46608Y-44005D01*
X46646Y-44001D01*
X46684Y-44004D01*
X46722Y-44014D01*
X46757Y-44032D01*
X46787Y-44056D01*
X46813Y-44085D01*
X46832Y-44119D01*
X46845Y-44156D01*
X46849Y-44195D01*
X46850Y-44200D01*
X46850Y-45200D02*
X46846Y-45238D01*
X46834Y-45276D01*
X46816Y-45310D01*
X46791Y-45340D01*
X46761Y-45365D01*
X46727Y-45384D01*
X46690Y-45395D01*
X46651Y-45399D01*
X46613Y-45396D01*
X46576Y-45385D01*
X46541Y-45367D01*
X46511Y-45342D01*
X46485Y-45312D01*
X46467Y-45278D01*
X46455Y-45241D01*
X46451Y-45202D01*
X46454Y-45164D01*
X46465Y-45127D01*
X46482Y-45092D01*
X46507Y-45062D01*
X46536Y-45036D01*
X46570Y-45017D01*
X46608Y-45005D01*
X46646Y-45001D01*
X46684Y-45004D01*
X46722Y-45014D01*
X46757Y-45032D01*
X46787Y-45056D01*
X46813Y-45085D01*
X46832Y-45119D01*
X46845Y-45156D01*
X46849Y-45195D01*
X46850Y-45200D01*
G54D12*
X40890Y-47083D02*
X40890Y-46283D01*
X41081Y-46283D01*
X41195Y-46321D01*
X41271Y-46397D01*
X41310Y-46473D01*
X41348Y-46626D01*
X41348Y-46740D01*
X41310Y-46892D01*
X41271Y-46969D01*
X41195Y-47045D01*
X41081Y-47083D01*
X40890Y-47083D01*
X41690Y-47083D02*
X41690Y-46549D01*
X41690Y-46702D02*
X41729Y-46626D01*
X41767Y-46588D01*
X41843Y-46549D01*
X41919Y-46549D01*
X42185Y-47083D02*
X42185Y-46549D01*
X42185Y-46283D02*
X42147Y-46321D01*
X42185Y-46359D01*
X42224Y-46321D01*
X42185Y-46283D01*
X42185Y-46359D01*
X42681Y-47083D02*
X42605Y-47045D01*
X42566Y-46969D01*
X42566Y-46283D01*
X43100Y-47083D02*
X43024Y-47045D01*
X42985Y-46969D01*
X42985Y-46283D01*
X44014Y-47083D02*
X44014Y-46283D01*
X44281Y-46854D01*
X44548Y-46283D01*
X44548Y-47083D01*
X45271Y-47083D02*
X45271Y-46664D01*
X45233Y-46588D01*
X45157Y-46549D01*
X45005Y-46549D01*
X44928Y-46588D01*
X45271Y-47045D02*
X45195Y-47083D01*
X45005Y-47083D01*
X44928Y-47045D01*
X44890Y-46969D01*
X44890Y-46892D01*
X44928Y-46816D01*
X45005Y-46778D01*
X45195Y-46778D01*
X45271Y-46740D01*
X45652Y-46549D02*
X45652Y-47349D01*
X45652Y-46588D02*
X45729Y-46549D01*
X45881Y-46549D01*
X45957Y-46588D01*
X45995Y-46626D01*
X46033Y-46702D01*
X46033Y-46930D01*
X45995Y-47007D01*
X45957Y-47045D01*
X45881Y-47083D01*
X45729Y-47083D01*
X45652Y-47045D01*
X46376Y-47007D02*
X46415Y-47045D01*
X46376Y-47083D01*
X46338Y-47045D01*
X46376Y-47007D01*
X46376Y-47083D01*
X46376Y-46588D02*
X46415Y-46626D01*
X46376Y-46664D01*
X46338Y-46626D01*
X46376Y-46588D01*
X46376Y-46664D01*
X40380Y-48379D02*
X40500Y-48499D01*
X40500Y-48379D02*
X40380Y-48499D01*
X41043Y-47963D02*
X41119Y-47963D01*
X41195Y-48001D01*
X41233Y-48039D01*
X41271Y-48115D01*
X41310Y-48268D01*
X41310Y-48458D01*
X41271Y-48610D01*
X41233Y-48687D01*
X41195Y-48725D01*
X41119Y-48763D01*
X41043Y-48763D01*
X40967Y-48725D01*
X40929Y-48687D01*
X40890Y-48610D01*
X40852Y-48458D01*
X40852Y-48268D01*
X40890Y-48115D01*
X40929Y-48039D01*
X40967Y-48001D01*
X41043Y-47963D01*
X41652Y-48687D02*
X41691Y-48725D01*
X41652Y-48763D01*
X41614Y-48725D01*
X41652Y-48687D01*
X41652Y-48763D01*
X41957Y-47963D02*
X42453Y-47963D01*
X42186Y-48268D01*
X42300Y-48268D01*
X42376Y-48306D01*
X42414Y-48344D01*
X42453Y-48420D01*
X42453Y-48610D01*
X42414Y-48687D01*
X42376Y-48725D01*
X42300Y-48763D01*
X42072Y-48763D01*
X41995Y-48725D01*
X41957Y-48687D01*
X42948Y-47963D02*
X43024Y-47963D01*
X43100Y-48001D01*
X43138Y-48039D01*
X43176Y-48115D01*
X43215Y-48268D01*
X43215Y-48458D01*
X43176Y-48610D01*
X43138Y-48687D01*
X43100Y-48725D01*
X43024Y-48763D01*
X42948Y-48763D01*
X42872Y-48725D01*
X42834Y-48687D01*
X42795Y-48610D01*
X42757Y-48458D01*
X42757Y-48268D01*
X42795Y-48115D01*
X42834Y-48039D01*
X42872Y-48001D01*
X42948Y-47963D01*
X43557Y-48763D02*
X43557Y-48229D01*
X43557Y-48306D02*
X43596Y-48268D01*
X43672Y-48229D01*
X43786Y-48229D01*
X43862Y-48268D01*
X43900Y-48344D01*
X43900Y-48763D01*
X43900Y-48344D02*
X43938Y-48268D01*
X44015Y-48229D01*
X44129Y-48229D01*
X44205Y-48268D01*
X44243Y-48344D01*
X44243Y-48763D01*
X44624Y-48763D02*
X44624Y-48229D01*
X44624Y-48306D02*
X44663Y-48268D01*
X44739Y-48229D01*
X44853Y-48229D01*
X44929Y-48268D01*
X44967Y-48344D01*
X44967Y-48763D01*
X44967Y-48344D02*
X45005Y-48268D01*
X45082Y-48229D01*
X45196Y-48229D01*
X45272Y-48268D01*
X45310Y-48344D01*
X45310Y-48763D01*
X46873Y-47925D02*
X46187Y-48953D01*
X47902Y-47963D02*
X47978Y-47963D01*
X48054Y-48001D01*
X48092Y-48039D01*
X48130Y-48115D01*
X48169Y-48268D01*
X48169Y-48458D01*
X48130Y-48610D01*
X48092Y-48687D01*
X48054Y-48725D01*
X47978Y-48763D01*
X47902Y-48763D01*
X47826Y-48725D01*
X47788Y-48687D01*
X47749Y-48610D01*
X47711Y-48458D01*
X47711Y-48268D01*
X47749Y-48115D01*
X47788Y-48039D01*
X47826Y-48001D01*
X47902Y-47963D01*
X48511Y-48687D02*
X48550Y-48725D01*
X48511Y-48763D01*
X48473Y-48725D01*
X48511Y-48687D01*
X48511Y-48763D01*
X49045Y-47963D02*
X49121Y-47963D01*
X49197Y-48001D01*
X49235Y-48039D01*
X49273Y-48115D01*
X49312Y-48268D01*
X49312Y-48458D01*
X49273Y-48610D01*
X49235Y-48687D01*
X49197Y-48725D01*
X49121Y-48763D01*
X49045Y-48763D01*
X48969Y-48725D01*
X48931Y-48687D01*
X48892Y-48610D01*
X48854Y-48458D01*
X48854Y-48268D01*
X48892Y-48115D01*
X48931Y-48039D01*
X48969Y-48001D01*
X49045Y-47963D01*
X50074Y-48763D02*
X49616Y-48763D01*
X49845Y-48763D02*
X49845Y-47963D01*
X49769Y-48077D01*
X49693Y-48153D01*
X49616Y-48191D01*
X50378Y-48039D02*
X50416Y-48001D01*
X50493Y-47963D01*
X50683Y-47963D01*
X50759Y-48001D01*
X50797Y-48039D01*
X50836Y-48115D01*
X50836Y-48191D01*
X50797Y-48306D01*
X50340Y-48763D01*
X50836Y-48763D01*
X51140Y-47963D02*
X51140Y-48115D01*
X51445Y-47963D02*
X51445Y-48115D01*
X52627Y-49068D02*
X52589Y-49029D01*
X52513Y-48915D01*
X52475Y-48839D01*
X52437Y-48725D01*
X52398Y-48534D01*
X52398Y-48382D01*
X52437Y-48191D01*
X52475Y-48077D01*
X52513Y-48001D01*
X52589Y-47887D01*
X52627Y-47849D01*
X52855Y-47963D02*
X53351Y-47963D01*
X53084Y-48268D01*
X53198Y-48268D01*
X53274Y-48306D01*
X53312Y-48344D01*
X53351Y-48420D01*
X53351Y-48610D01*
X53312Y-48687D01*
X53274Y-48725D01*
X53198Y-48763D01*
X52970Y-48763D01*
X52893Y-48725D01*
X52855Y-48687D01*
X53808Y-48306D02*
X53732Y-48268D01*
X53693Y-48229D01*
X53655Y-48153D01*
X53655Y-48115D01*
X53693Y-48039D01*
X53732Y-48001D01*
X53808Y-47963D01*
X53960Y-47963D01*
X54036Y-48001D01*
X54074Y-48039D01*
X54113Y-48115D01*
X54113Y-48153D01*
X54074Y-48229D01*
X54036Y-48268D01*
X53960Y-48306D01*
X53808Y-48306D01*
X53732Y-48344D01*
X53693Y-48382D01*
X53655Y-48458D01*
X53655Y-48610D01*
X53693Y-48687D01*
X53732Y-48725D01*
X53808Y-48763D01*
X53960Y-48763D01*
X54036Y-48725D01*
X54074Y-48687D01*
X54113Y-48610D01*
X54113Y-48458D01*
X54074Y-48382D01*
X54036Y-48344D01*
X53960Y-48306D01*
X55065Y-48763D02*
X55065Y-47963D01*
X55408Y-48763D02*
X55408Y-48344D01*
X55370Y-48268D01*
X55294Y-48229D01*
X55180Y-48229D01*
X55104Y-48268D01*
X55065Y-48306D01*
X55904Y-48763D02*
X55828Y-48725D01*
X55789Y-48687D01*
X55751Y-48610D01*
X55751Y-48382D01*
X55789Y-48306D01*
X55828Y-48268D01*
X55904Y-48229D01*
X56018Y-48229D01*
X56094Y-48268D01*
X56132Y-48306D01*
X56170Y-48382D01*
X56170Y-48610D01*
X56132Y-48687D01*
X56094Y-48725D01*
X56018Y-48763D01*
X55904Y-48763D01*
X56628Y-48763D02*
X56552Y-48725D01*
X56513Y-48649D01*
X56513Y-47963D01*
X57237Y-48725D02*
X57161Y-48763D01*
X57009Y-48763D01*
X56932Y-48725D01*
X56894Y-48649D01*
X56894Y-48344D01*
X56932Y-48268D01*
X57009Y-48229D01*
X57161Y-48229D01*
X57237Y-48268D01*
X57275Y-48344D01*
X57275Y-48420D01*
X56894Y-48496D01*
X57580Y-48725D02*
X57657Y-48763D01*
X57809Y-48763D01*
X57885Y-48725D01*
X57923Y-48649D01*
X57923Y-48610D01*
X57885Y-48534D01*
X57809Y-48496D01*
X57695Y-48496D01*
X57618Y-48458D01*
X57580Y-48382D01*
X57580Y-48344D01*
X57618Y-48268D01*
X57695Y-48229D01*
X57809Y-48229D01*
X57885Y-48268D01*
X58190Y-49068D02*
X58228Y-49029D01*
X58305Y-48915D01*
X58343Y-48839D01*
X58381Y-48725D01*
X58419Y-48534D01*
X58419Y-48382D01*
X58381Y-48191D01*
X58343Y-48077D01*
X58305Y-48001D01*
X58228Y-47887D01*
X58190Y-47849D01*
G54D10*
X40500Y-49494D02*
X40496Y-49532D01*
X40484Y-49570D01*
X40466Y-49604D01*
X40441Y-49634D01*
X40411Y-49659D01*
X40377Y-49678D01*
X40340Y-49689D01*
X40301Y-49693D01*
X40263Y-49690D01*
X40226Y-49679D01*
X40191Y-49661D01*
X40161Y-49636D01*
X40135Y-49606D01*
X40117Y-49572D01*
X40105Y-49535D01*
X40101Y-49496D01*
X40104Y-49458D01*
X40115Y-49421D01*
X40132Y-49386D01*
X40157Y-49356D01*
X40186Y-49330D01*
X40220Y-49311D01*
X40258Y-49299D01*
X40296Y-49295D01*
X40334Y-49298D01*
X40372Y-49308D01*
X40407Y-49326D01*
X40437Y-49350D01*
X40463Y-49379D01*
X40482Y-49413D01*
X40495Y-49450D01*
X40499Y-49489D01*
X40500Y-49494D01*
G54D12*
X41310Y-49818D02*
X40852Y-49818D01*
X41081Y-49818D02*
X41081Y-49018D01*
X41005Y-49132D01*
X40929Y-49208D01*
X40852Y-49246D01*
X41652Y-49742D02*
X41691Y-49780D01*
X41652Y-49818D01*
X41614Y-49780D01*
X41652Y-49742D01*
X41652Y-49818D01*
X42186Y-49018D02*
X42262Y-49018D01*
X42338Y-49056D01*
X42376Y-49094D01*
X42414Y-49170D01*
X42453Y-49323D01*
X42453Y-49513D01*
X42414Y-49665D01*
X42376Y-49742D01*
X42338Y-49780D01*
X42262Y-49818D01*
X42186Y-49818D01*
X42110Y-49780D01*
X42072Y-49742D01*
X42033Y-49665D01*
X41995Y-49513D01*
X41995Y-49323D01*
X42033Y-49170D01*
X42072Y-49094D01*
X42110Y-49056D01*
X42186Y-49018D01*
X42757Y-49094D02*
X42795Y-49056D01*
X42872Y-49018D01*
X43062Y-49018D01*
X43138Y-49056D01*
X43176Y-49094D01*
X43215Y-49170D01*
X43215Y-49246D01*
X43176Y-49361D01*
X42719Y-49818D01*
X43215Y-49818D01*
X43557Y-49818D02*
X43557Y-49284D01*
X43557Y-49361D02*
X43596Y-49323D01*
X43672Y-49284D01*
X43786Y-49284D01*
X43862Y-49323D01*
X43900Y-49399D01*
X43900Y-49818D01*
X43900Y-49399D02*
X43938Y-49323D01*
X44015Y-49284D01*
X44129Y-49284D01*
X44205Y-49323D01*
X44243Y-49399D01*
X44243Y-49818D01*
X44624Y-49818D02*
X44624Y-49284D01*
X44624Y-49361D02*
X44663Y-49323D01*
X44739Y-49284D01*
X44853Y-49284D01*
X44929Y-49323D01*
X44967Y-49399D01*
X44967Y-49818D01*
X44967Y-49399D02*
X45005Y-49323D01*
X45082Y-49284D01*
X45196Y-49284D01*
X45272Y-49323D01*
X45310Y-49399D01*
X45310Y-49818D01*
X46873Y-48980D02*
X46187Y-50008D01*
X47902Y-49018D02*
X47978Y-49018D01*
X48054Y-49056D01*
X48092Y-49094D01*
X48130Y-49170D01*
X48169Y-49323D01*
X48169Y-49513D01*
X48130Y-49665D01*
X48092Y-49742D01*
X48054Y-49780D01*
X47978Y-49818D01*
X47902Y-49818D01*
X47826Y-49780D01*
X47788Y-49742D01*
X47749Y-49665D01*
X47711Y-49513D01*
X47711Y-49323D01*
X47749Y-49170D01*
X47788Y-49094D01*
X47826Y-49056D01*
X47902Y-49018D01*
X48511Y-49742D02*
X48550Y-49780D01*
X48511Y-49818D01*
X48473Y-49780D01*
X48511Y-49742D01*
X48511Y-49818D01*
X49045Y-49018D02*
X49121Y-49018D01*
X49197Y-49056D01*
X49235Y-49094D01*
X49273Y-49170D01*
X49312Y-49323D01*
X49312Y-49513D01*
X49273Y-49665D01*
X49235Y-49742D01*
X49197Y-49780D01*
X49121Y-49818D01*
X49045Y-49818D01*
X48969Y-49780D01*
X48931Y-49742D01*
X48892Y-49665D01*
X48854Y-49513D01*
X48854Y-49323D01*
X48892Y-49170D01*
X48931Y-49094D01*
X48969Y-49056D01*
X49045Y-49018D01*
X49997Y-49284D02*
X49997Y-49818D01*
X49807Y-48980D02*
X49616Y-49551D01*
X50112Y-49551D01*
X50569Y-49018D02*
X50645Y-49018D01*
X50721Y-49056D01*
X50759Y-49094D01*
X50797Y-49170D01*
X50836Y-49323D01*
X50836Y-49513D01*
X50797Y-49665D01*
X50759Y-49742D01*
X50721Y-49780D01*
X50645Y-49818D01*
X50569Y-49818D01*
X50493Y-49780D01*
X50455Y-49742D01*
X50416Y-49665D01*
X50378Y-49513D01*
X50378Y-49323D01*
X50416Y-49170D01*
X50455Y-49094D01*
X50493Y-49056D01*
X50569Y-49018D01*
X51140Y-49018D02*
X51140Y-49170D01*
X51445Y-49018D02*
X51445Y-49170D01*
X52627Y-50123D02*
X52589Y-50084D01*
X52513Y-49970D01*
X52475Y-49894D01*
X52437Y-49780D01*
X52398Y-49589D01*
X52398Y-49437D01*
X52437Y-49246D01*
X52475Y-49132D01*
X52513Y-49056D01*
X52589Y-48942D01*
X52627Y-48904D01*
X53351Y-49818D02*
X52893Y-49818D01*
X53122Y-49818D02*
X53122Y-49018D01*
X53046Y-49132D01*
X52970Y-49208D01*
X52893Y-49246D01*
X54036Y-49018D02*
X53884Y-49018D01*
X53808Y-49056D01*
X53770Y-49094D01*
X53693Y-49208D01*
X53655Y-49361D01*
X53655Y-49665D01*
X53693Y-49742D01*
X53732Y-49780D01*
X53808Y-49818D01*
X53960Y-49818D01*
X54036Y-49780D01*
X54074Y-49742D01*
X54113Y-49665D01*
X54113Y-49475D01*
X54074Y-49399D01*
X54036Y-49361D01*
X53960Y-49323D01*
X53808Y-49323D01*
X53732Y-49361D01*
X53693Y-49399D01*
X53655Y-49475D01*
X55065Y-49818D02*
X55065Y-49018D01*
X55408Y-49818D02*
X55408Y-49399D01*
X55370Y-49323D01*
X55294Y-49284D01*
X55180Y-49284D01*
X55104Y-49323D01*
X55065Y-49361D01*
X55904Y-49818D02*
X55828Y-49780D01*
X55789Y-49742D01*
X55751Y-49665D01*
X55751Y-49437D01*
X55789Y-49361D01*
X55828Y-49323D01*
X55904Y-49284D01*
X56018Y-49284D01*
X56094Y-49323D01*
X56132Y-49361D01*
X56170Y-49437D01*
X56170Y-49665D01*
X56132Y-49742D01*
X56094Y-49780D01*
X56018Y-49818D01*
X55904Y-49818D01*
X56628Y-49818D02*
X56552Y-49780D01*
X56513Y-49704D01*
X56513Y-49018D01*
X57237Y-49780D02*
X57161Y-49818D01*
X57009Y-49818D01*
X56932Y-49780D01*
X56894Y-49704D01*
X56894Y-49399D01*
X56932Y-49323D01*
X57009Y-49284D01*
X57161Y-49284D01*
X57237Y-49323D01*
X57275Y-49399D01*
X57275Y-49475D01*
X56894Y-49551D01*
X57580Y-49780D02*
X57657Y-49818D01*
X57809Y-49818D01*
X57885Y-49780D01*
X57923Y-49704D01*
X57923Y-49665D01*
X57885Y-49589D01*
X57809Y-49551D01*
X57695Y-49551D01*
X57618Y-49513D01*
X57580Y-49437D01*
X57580Y-49399D01*
X57618Y-49323D01*
X57695Y-49284D01*
X57809Y-49284D01*
X57885Y-49323D01*
X58190Y-50123D02*
X58228Y-50084D01*
X58305Y-49970D01*
X58343Y-49894D01*
X58381Y-49780D01*
X58419Y-49589D01*
X58419Y-49437D01*
X58381Y-49246D01*
X58343Y-49132D01*
X58305Y-49056D01*
X58228Y-48942D01*
X58190Y-48904D01*
M02*
